%
M48
M72
T01C0.03937
T02C0.05906
T03C0.11024
%
T01
X15537Y11600
X33352Y11600
X50793Y11600
X72633Y12102
X102633Y12102
X125537Y14080
X154474Y11600
X164474Y11600
X175911Y11600
X208332Y18450
X180793Y29651
X170793Y29651
X160793Y29651
X189868Y44120
X174631Y48135
X161994Y47191
X150183Y47466
X138057Y46521
X120694Y58096
X103096Y65261
X89631Y65261
X59317Y66521
X46009Y65773
X29553Y55537
X43883Y55419
X67269Y48332
X67269Y38332
X67269Y28332
X89631Y35261
X103096Y35261
X125537Y27860
X207506Y31836
X237506Y31836
X257072Y32309
X257072Y42309
X274395Y42466
X284395Y42466
X276049Y56876
X266049Y56876
X295301Y59789
X305891Y59868
X270576Y73608
X250025Y72033
X250025Y82033
X250025Y92033
X250025Y102033
X270576Y103608
X247742Y114513
X220025Y102033
X220025Y92033
X220025Y82033
X202072Y82387
X187112Y87781
X168647Y88214
X150183Y77466
X161994Y77191
X174631Y68135
X189868Y74120
X220025Y72033
X223313Y47702
X233313Y47702
X295301Y29789
X305891Y29868
X280931Y18490
X299868Y10616
X250931Y18490
X238332Y18450
X138057Y76521
X120694Y78096
X103254Y81364
X91128Y81521
X76718Y81600
X59317Y86521
X55458Y101206
X55458Y111206
X76718Y111600
X91128Y111521
X103254Y111364
X119080Y110931
X149080Y110931
X168647Y108214
X187112Y107781
X202072Y112387
X217742Y114513
X144395Y95380
X124395Y95380
X119100Y134100
X16009Y65773
X15537Y45537
X15537Y25537
X29553Y25537
X43883Y25419
T02
X60655Y127742
X80655Y127742
X100655Y127742
X139750Y128254
X159750Y128254
X179750Y128254
X216521Y128096
X236521Y128096
X256521Y128096
T03
X26600Y125100
X26600Y106600
X26600Y88100
X291285Y87883
X291285Y106383
X291285Y124883
M30
