G75*
%MOIN*%
%OFA0B0*%
%FSLAX25Y25*%
%IPPOS*%
%LPD*%
%AMOC8*
5,1,8,0,0,1.08239X$1,22.5*
%
%ADD10C,0.00000*%
%ADD11R,0.07874X0.07874*%
%ADD12C,0.07874*%
%ADD13C,0.11000*%
%ADD14C,0.15024*%
%ADD15C,0.02400*%
%ADD16C,0.01200*%
D10*
X0001600Y0001600D02*
X0001600Y0144317D01*
X0316600Y0144317D01*
X0316600Y0001600D01*
X0001600Y0001600D01*
D11*
X0015537Y0011600D03*
X0033352Y0011600D03*
X0050793Y0011600D03*
X0043883Y0025419D03*
X0125537Y0027860D03*
X0154474Y0011600D03*
X0175911Y0011600D03*
X0257072Y0042309D03*
X0274395Y0042466D03*
X0276049Y0056876D03*
X0295301Y0059789D03*
X0250025Y0072033D03*
X0305891Y0029868D03*
X0299868Y0010616D03*
X0055458Y0111206D03*
X0119100Y0134100D03*
D12*
X0119080Y0110931D03*
X0103254Y0111364D03*
X0091128Y0111521D03*
X0076718Y0111600D03*
X0055458Y0101206D03*
X0059317Y0086521D03*
X0076718Y0081600D03*
X0091128Y0081521D03*
X0103254Y0081364D03*
X0120694Y0078096D03*
X0138057Y0076521D03*
X0150183Y0077466D03*
X0161994Y0077191D03*
X0174631Y0068135D03*
X0189868Y0074120D03*
X0202072Y0082387D03*
X0187112Y0087781D03*
X0168647Y0088214D03*
X0144395Y0095380D03*
X0124395Y0095380D03*
X0149080Y0110931D03*
X0168647Y0108214D03*
X0187112Y0107781D03*
X0202072Y0112387D03*
X0217742Y0114513D03*
X0220025Y0102033D03*
X0220025Y0092033D03*
X0220025Y0082033D03*
X0220025Y0072033D03*
X0250025Y0082033D03*
X0250025Y0092033D03*
X0250025Y0102033D03*
X0270576Y0103608D03*
X0247742Y0114513D03*
X0270576Y0073608D03*
X0305891Y0059868D03*
X0284395Y0042466D03*
X0295301Y0029789D03*
X0280931Y0018490D03*
X0250931Y0018490D03*
X0238332Y0018450D03*
X0237506Y0031836D03*
X0257072Y0032309D03*
X0233313Y0047702D03*
X0223313Y0047702D03*
X0189868Y0044120D03*
X0174631Y0048135D03*
X0161994Y0047191D03*
X0150183Y0047466D03*
X0138057Y0046521D03*
X0120694Y0058096D03*
X0103096Y0065261D03*
X0089631Y0065261D03*
X0059317Y0066521D03*
X0046009Y0065773D03*
X0029553Y0055537D03*
X0043883Y0055419D03*
X0067269Y0048332D03*
X0067269Y0038332D03*
X0067269Y0028332D03*
X0089631Y0035261D03*
X0103096Y0035261D03*
X0125537Y0014080D03*
X0102633Y0012102D03*
X0072633Y0012102D03*
X0029553Y0025537D03*
X0015537Y0025537D03*
X0015537Y0045537D03*
X0016009Y0065773D03*
X0160793Y0029651D03*
X0170793Y0029651D03*
X0180793Y0029651D03*
X0207506Y0031836D03*
X0208332Y0018450D03*
X0164474Y0011600D03*
X0266049Y0056876D03*
D13*
X0256521Y0128096D03*
X0236521Y0128096D03*
X0216521Y0128096D03*
X0179750Y0128254D03*
X0159750Y0128254D03*
X0139750Y0128254D03*
X0100655Y0127742D03*
X0080655Y0127742D03*
X0060655Y0127742D03*
D14*
X0026600Y0125100D03*
X0026600Y0106600D03*
X0026600Y0088100D03*
X0291285Y0087883D03*
X0291285Y0106383D03*
X0291285Y0124883D03*
D15*
X0270350Y0134100D02*
X0270350Y0103834D01*
X0270576Y0103608D01*
X0259100Y0109100D02*
X0259100Y0072466D01*
X0258667Y0072033D01*
X0266600Y0064100D01*
X0266600Y0057427D01*
X0266049Y0056876D01*
X0250350Y0061600D02*
X0250350Y0071708D01*
X0250025Y0072033D01*
X0258667Y0072033D01*
X0249592Y0081600D02*
X0246600Y0081600D01*
X0223313Y0058313D01*
X0223313Y0047702D01*
X0233313Y0047702D02*
X0236452Y0047702D01*
X0250350Y0061600D01*
X0220025Y0060025D02*
X0194100Y0034100D01*
X0194100Y0024100D01*
X0189100Y0019100D01*
X0162850Y0019100D01*
X0160350Y0021600D01*
X0160350Y0029208D01*
X0160793Y0029651D01*
X0166600Y0036600D02*
X0170793Y0032407D01*
X0170793Y0029651D01*
X0166600Y0036600D02*
X0147978Y0036600D01*
X0138057Y0046521D01*
X0137978Y0046600D01*
X0124100Y0046600D01*
X0120694Y0050006D01*
X0120694Y0058096D01*
X0103254Y0065419D02*
X0103096Y0065261D01*
X0089631Y0065261D01*
X0103254Y0065419D02*
X0103254Y0081364D01*
X0108490Y0086600D01*
X0131600Y0086600D01*
X0138057Y0080143D01*
X0138057Y0076521D01*
X0161994Y0052584D01*
X0161994Y0047191D01*
X0174631Y0068135D02*
X0174631Y0073569D01*
X0170350Y0077850D01*
X0162653Y0077850D01*
X0161994Y0077191D01*
X0150183Y0077466D02*
X0150183Y0082683D01*
X0155350Y0087850D01*
X0168283Y0087850D01*
X0168647Y0088214D01*
X0175793Y0099100D02*
X0187112Y0087781D01*
X0202072Y0082387D02*
X0202850Y0083165D01*
X0202850Y0096600D01*
X0191669Y0107781D01*
X0187112Y0107781D01*
X0195616Y0112387D02*
X0179750Y0128254D01*
X0168647Y0119356D02*
X0159750Y0128254D01*
X0168647Y0119356D02*
X0168647Y0108214D01*
X0156600Y0099100D02*
X0149100Y0106600D01*
X0149100Y0110911D01*
X0149080Y0110931D01*
X0139750Y0110734D02*
X0139750Y0128254D01*
X0150596Y0139100D01*
X0199100Y0139100D01*
X0204100Y0134100D01*
X0204100Y0122850D01*
X0212437Y0114513D01*
X0217742Y0114513D01*
X0202072Y0112387D02*
X0195616Y0112387D01*
X0175793Y0099100D02*
X0156600Y0099100D01*
X0139750Y0110734D02*
X0124395Y0095380D01*
X0112820Y0095380D01*
X0102850Y0105350D01*
X0102850Y0110960D01*
X0103254Y0111364D01*
X0091128Y0111521D02*
X0091128Y0093490D01*
X0103254Y0081364D01*
X0091128Y0081521D02*
X0091049Y0081600D01*
X0089100Y0081600D01*
X0062683Y0055183D01*
X0056600Y0055183D01*
X0046009Y0065773D01*
X0059317Y0066521D02*
X0037738Y0088100D01*
X0026600Y0088100D01*
X0034100Y0106600D02*
X0054179Y0086521D01*
X0059317Y0086521D01*
X0071797Y0086521D01*
X0076718Y0081600D01*
X0056600Y0055183D02*
X0056600Y0044100D01*
X0062368Y0038332D01*
X0067269Y0038332D01*
X0029553Y0025537D02*
X0015537Y0025537D01*
X0015537Y0011600D01*
X0015537Y0045537D02*
X0016009Y0045537D01*
X0016009Y0065773D01*
X0026600Y0106600D02*
X0034100Y0106600D01*
X0055458Y0111206D02*
X0055458Y0122545D01*
X0060655Y0127742D01*
X0055852Y0111600D02*
X0076718Y0111600D01*
X0076797Y0111521D01*
X0091128Y0111521D01*
X0107850Y0127850D02*
X0119080Y0116620D01*
X0119080Y0110931D01*
X0107850Y0127850D02*
X0100763Y0127850D01*
X0100655Y0127742D01*
X0055852Y0111600D02*
X0055458Y0111206D01*
X0216521Y0128096D02*
X0216521Y0134021D01*
X0221600Y0139100D01*
X0265350Y0139100D01*
X0270350Y0134100D01*
X0256521Y0128096D02*
X0256521Y0123293D01*
X0247742Y0114513D01*
X0253687Y0114513D01*
X0259100Y0109100D01*
X0256521Y0128096D02*
X0236521Y0128096D01*
X0250025Y0082033D02*
X0249592Y0081600D01*
X0220025Y0072033D02*
X0220025Y0060025D01*
X0175911Y0011600D02*
X0164474Y0011600D01*
D16*
X0169146Y0007593D02*
X0169774Y0007593D01*
X0169677Y0008124D02*
X0169708Y0008200D01*
X0169774Y0008200D01*
X0169774Y0006752D01*
X0171063Y0005463D01*
X0180759Y0005463D01*
X0182048Y0006752D01*
X0182048Y0015700D01*
X0189776Y0015700D01*
X0191026Y0016218D01*
X0191982Y0017174D01*
X0196982Y0022174D01*
X0197500Y0023424D01*
X0197500Y0032692D01*
X0219913Y0055104D01*
X0219913Y0052937D01*
X0219836Y0052905D01*
X0218110Y0051179D01*
X0217176Y0048923D01*
X0217176Y0046482D01*
X0218110Y0044226D01*
X0219836Y0042500D01*
X0222092Y0041565D01*
X0224533Y0041565D01*
X0226789Y0042500D01*
X0228313Y0044023D01*
X0229836Y0042500D01*
X0232092Y0041565D01*
X0234533Y0041565D01*
X0236789Y0042500D01*
X0238515Y0044226D01*
X0239032Y0045474D01*
X0252276Y0058718D01*
X0253232Y0059674D01*
X0253750Y0060924D01*
X0253750Y0065896D01*
X0254873Y0065896D01*
X0256162Y0067185D01*
X0256162Y0068633D01*
X0257259Y0068633D01*
X0263200Y0062692D01*
X0263200Y0062338D01*
X0262572Y0062078D01*
X0260846Y0060352D01*
X0259912Y0058096D01*
X0259912Y0055655D01*
X0260846Y0053399D01*
X0262572Y0051673D01*
X0264828Y0050739D01*
X0267270Y0050739D01*
X0271200Y0050739D01*
X0271201Y0050739D02*
X0280897Y0050739D01*
X0282186Y0052027D01*
X0282186Y0061724D01*
X0280897Y0063013D01*
X0271201Y0063013D01*
X0270000Y0061812D01*
X0270000Y0064776D01*
X0269482Y0066026D01*
X0268526Y0066982D01*
X0267105Y0068403D01*
X0269356Y0067471D01*
X0271797Y0067471D01*
X0274053Y0068405D01*
X0275779Y0070132D01*
X0276713Y0072387D01*
X0276713Y0074829D01*
X0275779Y0077084D01*
X0274053Y0078811D01*
X0271797Y0079745D01*
X0269356Y0079745D01*
X0267100Y0078811D01*
X0265374Y0077084D01*
X0264439Y0074829D01*
X0264439Y0072387D01*
X0265371Y0070137D01*
X0262500Y0073008D01*
X0262500Y0109776D01*
X0261982Y0111026D01*
X0261026Y0111982D01*
X0255613Y0117396D01*
X0255485Y0117449D01*
X0258701Y0120665D01*
X0260883Y0121568D01*
X0263049Y0123734D01*
X0264221Y0126564D01*
X0264221Y0129628D01*
X0263049Y0132458D01*
X0260883Y0134624D01*
X0258285Y0135700D01*
X0263942Y0135700D01*
X0266950Y0132692D01*
X0266950Y0108661D01*
X0265374Y0107084D01*
X0264439Y0104829D01*
X0264439Y0102387D01*
X0265374Y0100132D01*
X0267100Y0098405D01*
X0269356Y0097471D01*
X0271797Y0097471D01*
X0274053Y0098405D01*
X0275779Y0100132D01*
X0276713Y0102387D01*
X0276713Y0104829D01*
X0275779Y0107084D01*
X0274053Y0108811D01*
X0273750Y0108936D01*
X0273750Y0134776D01*
X0273232Y0136026D01*
X0272276Y0136982D01*
X0267276Y0141982D01*
X0266952Y0142117D01*
X0314400Y0142117D01*
X0314400Y0003800D01*
X0003800Y0003800D01*
X0003800Y0142117D01*
X0148994Y0142117D01*
X0148670Y0141982D01*
X0142243Y0135555D01*
X0141281Y0135954D01*
X0138218Y0135954D01*
X0135388Y0134781D01*
X0133222Y0132615D01*
X0132050Y0129785D01*
X0132050Y0126722D01*
X0133222Y0123892D01*
X0135388Y0121726D01*
X0136350Y0121327D01*
X0136350Y0112142D01*
X0125692Y0101485D01*
X0125616Y0101517D01*
X0123175Y0101517D01*
X0120919Y0100582D01*
X0119193Y0098856D01*
X0119161Y0098780D01*
X0114229Y0098780D01*
X0106789Y0106220D01*
X0108456Y0107887D01*
X0109391Y0110143D01*
X0109391Y0112584D01*
X0108456Y0114840D01*
X0106730Y0116566D01*
X0104474Y0117501D01*
X0102033Y0117501D01*
X0099777Y0116566D01*
X0098051Y0114840D01*
X0097223Y0112842D01*
X0096330Y0114998D01*
X0094604Y0116724D01*
X0092348Y0117658D01*
X0089907Y0117658D01*
X0087651Y0116724D01*
X0085925Y0114998D01*
X0085893Y0114921D01*
X0081985Y0114921D01*
X0081921Y0115076D01*
X0080194Y0116803D01*
X0077939Y0117737D01*
X0075497Y0117737D01*
X0073242Y0116803D01*
X0071515Y0115076D01*
X0071484Y0115000D01*
X0061595Y0115000D01*
X0061595Y0116055D01*
X0060307Y0117343D01*
X0058858Y0117343D01*
X0058858Y0120152D01*
X0059123Y0120042D01*
X0062187Y0120042D01*
X0065017Y0121214D01*
X0067183Y0123380D01*
X0068355Y0126210D01*
X0068355Y0129273D01*
X0067183Y0132103D01*
X0065017Y0134269D01*
X0062187Y0135442D01*
X0059123Y0135442D01*
X0056293Y0134269D01*
X0054127Y0132103D01*
X0052955Y0129273D01*
X0052955Y0126210D01*
X0053353Y0125248D01*
X0052576Y0124471D01*
X0052058Y0123221D01*
X0052058Y0117343D01*
X0050610Y0117343D01*
X0049321Y0116055D01*
X0049321Y0106358D01*
X0050610Y0105069D01*
X0051491Y0105069D01*
X0051235Y0104813D01*
X0050723Y0104108D01*
X0050327Y0103332D01*
X0050058Y0102503D01*
X0049921Y0101642D01*
X0049921Y0101591D01*
X0055074Y0101591D01*
X0055074Y0100822D01*
X0055843Y0100822D01*
X0055843Y0101591D01*
X0060995Y0101591D01*
X0060995Y0101642D01*
X0060859Y0102503D01*
X0060590Y0103332D01*
X0060194Y0104108D01*
X0059682Y0104813D01*
X0059426Y0105069D01*
X0060307Y0105069D01*
X0061595Y0106358D01*
X0061595Y0108200D01*
X0071484Y0108200D01*
X0071515Y0108124D01*
X0073242Y0106397D01*
X0075497Y0105463D01*
X0077939Y0105463D01*
X0080194Y0106397D01*
X0081918Y0108121D01*
X0085893Y0108121D01*
X0085925Y0108045D01*
X0087651Y0106319D01*
X0087728Y0106287D01*
X0087728Y0092813D01*
X0088245Y0091564D01*
X0089202Y0090607D01*
X0092151Y0087658D01*
X0089907Y0087658D01*
X0087651Y0086724D01*
X0085925Y0084998D01*
X0084991Y0082742D01*
X0084991Y0082299D01*
X0082702Y0080011D01*
X0082855Y0080379D01*
X0082855Y0082821D01*
X0081921Y0085076D01*
X0080194Y0086803D01*
X0077939Y0087737D01*
X0075497Y0087737D01*
X0075421Y0087705D01*
X0074679Y0088447D01*
X0073723Y0089404D01*
X0072473Y0089921D01*
X0064551Y0089921D01*
X0064519Y0089998D01*
X0062793Y0091724D01*
X0060537Y0092658D01*
X0058096Y0092658D01*
X0055840Y0091724D01*
X0054812Y0090696D01*
X0036982Y0108526D01*
X0036026Y0109482D01*
X0035896Y0109536D01*
X0034833Y0112101D01*
X0032101Y0114833D01*
X0029647Y0115850D01*
X0032101Y0116867D01*
X0034833Y0119599D01*
X0036312Y0123168D01*
X0036312Y0127032D01*
X0034833Y0130601D01*
X0032101Y0133333D01*
X0028532Y0134812D01*
X0024668Y0134812D01*
X0021099Y0133333D01*
X0018367Y0130601D01*
X0016888Y0127032D01*
X0016888Y0123168D01*
X0018367Y0119599D01*
X0021099Y0116867D01*
X0023553Y0115850D01*
X0021099Y0114833D01*
X0018367Y0112101D01*
X0016888Y0108532D01*
X0016888Y0104668D01*
X0018367Y0101099D01*
X0021099Y0098367D01*
X0023553Y0097350D01*
X0021099Y0096333D01*
X0018367Y0093601D01*
X0016888Y0090032D01*
X0016888Y0086168D01*
X0018367Y0082599D01*
X0021099Y0079867D01*
X0024668Y0078388D01*
X0028532Y0078388D01*
X0032101Y0079867D01*
X0034833Y0082599D01*
X0035704Y0084700D01*
X0036329Y0084700D01*
X0053211Y0067818D01*
X0053180Y0067742D01*
X0053180Y0065301D01*
X0054114Y0063045D01*
X0055840Y0061319D01*
X0058096Y0060384D01*
X0060537Y0060384D01*
X0062793Y0061319D01*
X0064519Y0063045D01*
X0065454Y0065301D01*
X0065454Y0067742D01*
X0064519Y0069998D01*
X0062793Y0071724D01*
X0060537Y0072658D01*
X0058096Y0072658D01*
X0058019Y0072627D01*
X0039664Y0090982D01*
X0038414Y0091500D01*
X0035704Y0091500D01*
X0034833Y0093601D01*
X0032101Y0096333D01*
X0029647Y0097350D01*
X0032101Y0098367D01*
X0034813Y0101079D01*
X0052253Y0083639D01*
X0053502Y0083121D01*
X0054082Y0083121D01*
X0054114Y0083045D01*
X0055840Y0081319D01*
X0058096Y0080384D01*
X0060537Y0080384D01*
X0062793Y0081319D01*
X0064519Y0083045D01*
X0064551Y0083121D01*
X0070389Y0083121D01*
X0070613Y0082897D01*
X0070581Y0082821D01*
X0070581Y0080379D01*
X0071515Y0078124D01*
X0073242Y0076397D01*
X0075497Y0075463D01*
X0077939Y0075463D01*
X0078307Y0075616D01*
X0061274Y0058583D01*
X0058008Y0058583D01*
X0052115Y0064476D01*
X0052146Y0064552D01*
X0052146Y0066994D01*
X0051212Y0069250D01*
X0049486Y0070976D01*
X0047230Y0071910D01*
X0044789Y0071910D01*
X0042533Y0070976D01*
X0040807Y0069250D01*
X0039872Y0066994D01*
X0039872Y0064552D01*
X0040807Y0062297D01*
X0042358Y0060745D01*
X0041758Y0060550D01*
X0040981Y0060155D01*
X0040276Y0059642D01*
X0039660Y0059026D01*
X0039148Y0058321D01*
X0038752Y0057544D01*
X0038483Y0056715D01*
X0038346Y0055855D01*
X0038346Y0055803D01*
X0043499Y0055803D01*
X0043499Y0055035D01*
X0038346Y0055035D01*
X0038346Y0054983D01*
X0038483Y0054122D01*
X0038752Y0053293D01*
X0039148Y0052517D01*
X0039660Y0051812D01*
X0040276Y0051195D01*
X0040981Y0050683D01*
X0041758Y0050288D01*
X0042587Y0050018D01*
X0043448Y0049882D01*
X0043499Y0049882D01*
X0043499Y0055035D01*
X0044268Y0055035D01*
X0044268Y0055803D01*
X0049420Y0055803D01*
X0049420Y0055855D01*
X0049284Y0056715D01*
X0049015Y0057544D01*
X0048619Y0058321D01*
X0048528Y0058446D01*
X0053200Y0053774D01*
X0053200Y0043424D01*
X0053718Y0042174D01*
X0054674Y0041218D01*
X0060442Y0035450D01*
X0061691Y0034932D01*
X0062035Y0034932D01*
X0062067Y0034856D01*
X0063590Y0033332D01*
X0062067Y0031809D01*
X0061132Y0029553D01*
X0061132Y0027112D01*
X0062067Y0024856D01*
X0063793Y0023130D01*
X0066049Y0022195D01*
X0068490Y0022195D01*
X0070746Y0023130D01*
X0072472Y0024856D01*
X0073406Y0027112D01*
X0073406Y0029553D01*
X0072472Y0031809D01*
X0070948Y0033332D01*
X0072472Y0034856D01*
X0073406Y0037112D01*
X0073406Y0039553D01*
X0072472Y0041809D01*
X0070948Y0043332D01*
X0072472Y0044856D01*
X0073406Y0047112D01*
X0073406Y0049553D01*
X0072472Y0051809D01*
X0070746Y0053535D01*
X0068490Y0054469D01*
X0066778Y0054469D01*
X0088341Y0076033D01*
X0089907Y0075384D01*
X0092348Y0075384D01*
X0094604Y0076319D01*
X0096330Y0078045D01*
X0097158Y0080043D01*
X0098051Y0077887D01*
X0099777Y0076161D01*
X0099854Y0076129D01*
X0099854Y0070561D01*
X0099620Y0070464D01*
X0097893Y0068738D01*
X0097862Y0068661D01*
X0094866Y0068661D01*
X0094834Y0068738D01*
X0093108Y0070464D01*
X0090852Y0071398D01*
X0088411Y0071398D01*
X0086155Y0070464D01*
X0084429Y0068738D01*
X0083494Y0066482D01*
X0083494Y0064041D01*
X0084429Y0061785D01*
X0086155Y0060059D01*
X0088411Y0059124D01*
X0090852Y0059124D01*
X0093108Y0060059D01*
X0094834Y0061785D01*
X0094866Y0061861D01*
X0097862Y0061861D01*
X0097893Y0061785D01*
X0099620Y0060059D01*
X0101875Y0059124D01*
X0104317Y0059124D01*
X0106572Y0060059D01*
X0108299Y0061785D01*
X0109233Y0064041D01*
X0109233Y0066482D01*
X0108299Y0068738D01*
X0106654Y0070383D01*
X0106654Y0076129D01*
X0106730Y0076161D01*
X0108456Y0077887D01*
X0109391Y0080143D01*
X0109391Y0082584D01*
X0109359Y0082661D01*
X0109898Y0083200D01*
X0117119Y0083200D01*
X0115492Y0081572D01*
X0114557Y0079317D01*
X0114557Y0076875D01*
X0115492Y0074620D01*
X0117218Y0072893D01*
X0119474Y0071959D01*
X0121915Y0071959D01*
X0124171Y0072893D01*
X0125897Y0074620D01*
X0126831Y0076875D01*
X0126831Y0079317D01*
X0125897Y0081572D01*
X0124270Y0083200D01*
X0130192Y0083200D01*
X0133124Y0080268D01*
X0132854Y0079998D01*
X0131920Y0077742D01*
X0131920Y0075301D01*
X0132854Y0073045D01*
X0134580Y0071319D01*
X0136836Y0070384D01*
X0139277Y0070384D01*
X0139354Y0070416D01*
X0157947Y0051823D01*
X0156791Y0050667D01*
X0155857Y0048411D01*
X0155857Y0045970D01*
X0156791Y0043714D01*
X0158517Y0041988D01*
X0160773Y0041054D01*
X0163214Y0041054D01*
X0165470Y0041988D01*
X0167196Y0043714D01*
X0168131Y0045970D01*
X0168131Y0048411D01*
X0167196Y0050667D01*
X0165470Y0052393D01*
X0165394Y0052425D01*
X0165394Y0053261D01*
X0164876Y0054510D01*
X0147417Y0071969D01*
X0148962Y0071329D01*
X0151403Y0071329D01*
X0153659Y0072263D01*
X0155385Y0073990D01*
X0156031Y0075549D01*
X0156791Y0073714D01*
X0158517Y0071988D01*
X0160773Y0071054D01*
X0163214Y0071054D01*
X0165470Y0071988D01*
X0167196Y0073714D01*
X0167501Y0074450D01*
X0168942Y0074450D01*
X0170604Y0072787D01*
X0169429Y0071612D01*
X0168494Y0069356D01*
X0168494Y0066915D01*
X0169429Y0064659D01*
X0171155Y0062933D01*
X0173411Y0061998D01*
X0175852Y0061998D01*
X0178108Y0062933D01*
X0179834Y0064659D01*
X0180768Y0066915D01*
X0180768Y0069356D01*
X0179834Y0071612D01*
X0178108Y0073338D01*
X0178031Y0073370D01*
X0178031Y0074245D01*
X0177514Y0075494D01*
X0173232Y0079776D01*
X0172276Y0080732D01*
X0171026Y0081250D01*
X0166613Y0081250D01*
X0165470Y0082393D01*
X0163214Y0083328D01*
X0160773Y0083328D01*
X0158517Y0082393D01*
X0156791Y0080667D01*
X0156145Y0079108D01*
X0155385Y0080942D01*
X0154318Y0082010D01*
X0156758Y0084450D01*
X0163732Y0084450D01*
X0165171Y0083011D01*
X0167427Y0082077D01*
X0169868Y0082077D01*
X0172124Y0083011D01*
X0173850Y0084738D01*
X0174784Y0086993D01*
X0174784Y0089435D01*
X0173850Y0091691D01*
X0172124Y0093417D01*
X0169868Y0094351D01*
X0167427Y0094351D01*
X0165171Y0093417D01*
X0163445Y0091691D01*
X0163262Y0091250D01*
X0154674Y0091250D01*
X0153424Y0090732D01*
X0152468Y0089776D01*
X0147300Y0084609D01*
X0146783Y0083359D01*
X0146783Y0082700D01*
X0146706Y0082669D01*
X0144980Y0080942D01*
X0144046Y0078687D01*
X0144046Y0078099D01*
X0143259Y0079998D01*
X0141533Y0081724D01*
X0140989Y0081949D01*
X0140939Y0082069D01*
X0134482Y0088526D01*
X0133526Y0089482D01*
X0132276Y0090000D01*
X0127445Y0090000D01*
X0127872Y0090177D01*
X0129598Y0091903D01*
X0130532Y0094159D01*
X0130532Y0096600D01*
X0130501Y0096677D01*
X0141676Y0107851D01*
X0142632Y0108808D01*
X0142974Y0109635D01*
X0143878Y0107454D01*
X0145604Y0105728D01*
X0145818Y0105639D01*
X0146218Y0104674D01*
X0147174Y0103718D01*
X0154674Y0096218D01*
X0155924Y0095700D01*
X0174385Y0095700D01*
X0181006Y0089078D01*
X0180975Y0089002D01*
X0180975Y0086560D01*
X0181909Y0084305D01*
X0183635Y0082578D01*
X0185891Y0081644D01*
X0188333Y0081644D01*
X0190588Y0082578D01*
X0192315Y0084305D01*
X0193249Y0086560D01*
X0193249Y0089002D01*
X0192315Y0091257D01*
X0190588Y0092984D01*
X0188333Y0093918D01*
X0185891Y0093918D01*
X0185815Y0093886D01*
X0178675Y0101026D01*
X0177719Y0101982D01*
X0176469Y0102500D01*
X0170889Y0102500D01*
X0172124Y0103011D01*
X0173850Y0104738D01*
X0174784Y0106993D01*
X0174784Y0109435D01*
X0173850Y0111691D01*
X0172124Y0113417D01*
X0172047Y0113448D01*
X0172047Y0120032D01*
X0171530Y0121282D01*
X0167051Y0125760D01*
X0167450Y0126722D01*
X0167450Y0129785D01*
X0166277Y0132615D01*
X0164111Y0134781D01*
X0161893Y0135700D01*
X0177606Y0135700D01*
X0175388Y0134781D01*
X0173222Y0132615D01*
X0172050Y0129785D01*
X0172050Y0126722D01*
X0173222Y0123892D01*
X0175388Y0121726D01*
X0178218Y0120554D01*
X0181281Y0120554D01*
X0182243Y0120952D01*
X0189944Y0113250D01*
X0188333Y0113918D01*
X0185891Y0113918D01*
X0183635Y0112984D01*
X0181909Y0111257D01*
X0180975Y0109002D01*
X0180975Y0106560D01*
X0181909Y0104305D01*
X0183635Y0102578D01*
X0185891Y0101644D01*
X0188333Y0101644D01*
X0190588Y0102578D01*
X0191326Y0103316D01*
X0199450Y0095192D01*
X0199450Y0087944D01*
X0198596Y0087590D01*
X0196870Y0085864D01*
X0195935Y0083608D01*
X0195935Y0081167D01*
X0196870Y0078911D01*
X0198596Y0077185D01*
X0200852Y0076250D01*
X0203293Y0076250D01*
X0205549Y0077185D01*
X0207275Y0078911D01*
X0208209Y0081167D01*
X0208209Y0083608D01*
X0207275Y0085864D01*
X0206250Y0086889D01*
X0206250Y0097276D01*
X0205732Y0098526D01*
X0204776Y0099482D01*
X0195271Y0108987D01*
X0196838Y0108987D01*
X0196870Y0108911D01*
X0198596Y0107185D01*
X0200852Y0106250D01*
X0203293Y0106250D01*
X0205549Y0107185D01*
X0207275Y0108911D01*
X0208209Y0111167D01*
X0208209Y0113608D01*
X0207980Y0114161D01*
X0209554Y0112587D01*
X0210511Y0111631D01*
X0211760Y0111113D01*
X0212507Y0111113D01*
X0212539Y0111037D01*
X0214265Y0109311D01*
X0216521Y0108376D01*
X0218962Y0108376D01*
X0221218Y0109311D01*
X0222944Y0111037D01*
X0223879Y0113293D01*
X0223879Y0115734D01*
X0222944Y0117990D01*
X0221218Y0119716D01*
X0218962Y0120650D01*
X0218667Y0120650D01*
X0220883Y0121568D01*
X0223049Y0123734D01*
X0224221Y0126564D01*
X0224221Y0129628D01*
X0223049Y0132458D01*
X0221408Y0134099D01*
X0223008Y0135700D01*
X0234758Y0135700D01*
X0232160Y0134624D01*
X0229994Y0132458D01*
X0228821Y0129628D01*
X0228821Y0126564D01*
X0229994Y0123734D01*
X0232160Y0121568D01*
X0234990Y0120396D01*
X0238053Y0120396D01*
X0240883Y0121568D01*
X0243049Y0123734D01*
X0243447Y0124696D01*
X0249595Y0124696D01*
X0249994Y0123734D01*
X0251074Y0122654D01*
X0249039Y0120619D01*
X0248962Y0120650D01*
X0246521Y0120650D01*
X0244265Y0119716D01*
X0242539Y0117990D01*
X0241605Y0115734D01*
X0241605Y0113293D01*
X0242539Y0111037D01*
X0244265Y0109311D01*
X0246521Y0108376D01*
X0248962Y0108376D01*
X0251218Y0109311D01*
X0252650Y0110742D01*
X0255700Y0107692D01*
X0255700Y0094370D01*
X0255228Y0095509D01*
X0253502Y0097236D01*
X0253082Y0097410D01*
X0253632Y0097810D01*
X0254249Y0098426D01*
X0254761Y0099131D01*
X0255157Y0099908D01*
X0255426Y0100736D01*
X0255562Y0101597D01*
X0255562Y0101649D01*
X0250410Y0101649D01*
X0250410Y0102417D01*
X0255562Y0102417D01*
X0255562Y0102469D01*
X0255426Y0103330D01*
X0255157Y0104159D01*
X0254761Y0104935D01*
X0254249Y0105640D01*
X0253632Y0106256D01*
X0252927Y0106769D01*
X0252151Y0107164D01*
X0251322Y0107434D01*
X0250461Y0107570D01*
X0250409Y0107570D01*
X0250409Y0102417D01*
X0249641Y0102417D01*
X0249641Y0101649D01*
X0244488Y0101649D01*
X0244488Y0101597D01*
X0244625Y0100736D01*
X0244894Y0099908D01*
X0245290Y0099131D01*
X0245802Y0098426D01*
X0246418Y0097810D01*
X0246969Y0097410D01*
X0246549Y0097236D01*
X0244822Y0095509D01*
X0243888Y0093254D01*
X0243888Y0090812D01*
X0244822Y0088557D01*
X0246346Y0087033D01*
X0244822Y0085509D01*
X0244201Y0084010D01*
X0243718Y0083526D01*
X0223425Y0063233D01*
X0223425Y0066799D01*
X0223502Y0066830D01*
X0225228Y0068557D01*
X0226162Y0070812D01*
X0226162Y0073254D01*
X0225228Y0075509D01*
X0223704Y0077033D01*
X0225228Y0078557D01*
X0226162Y0080812D01*
X0226162Y0083254D01*
X0225228Y0085509D01*
X0223704Y0087033D01*
X0225228Y0088557D01*
X0226162Y0090812D01*
X0226162Y0093254D01*
X0225228Y0095509D01*
X0223704Y0097033D01*
X0225228Y0098557D01*
X0226162Y0100812D01*
X0226162Y0103254D01*
X0225228Y0105509D01*
X0223502Y0107236D01*
X0221246Y0108170D01*
X0218804Y0108170D01*
X0216549Y0107236D01*
X0214822Y0105509D01*
X0213888Y0103254D01*
X0213888Y0100812D01*
X0214822Y0098557D01*
X0216346Y0097033D01*
X0214822Y0095509D01*
X0213888Y0093254D01*
X0213888Y0090812D01*
X0214822Y0088557D01*
X0216346Y0087033D01*
X0214822Y0085509D01*
X0213888Y0083254D01*
X0213888Y0080812D01*
X0214822Y0078557D01*
X0216346Y0077033D01*
X0214822Y0075509D01*
X0213888Y0073254D01*
X0213888Y0070812D01*
X0214822Y0068557D01*
X0216549Y0066830D01*
X0216625Y0066799D01*
X0216625Y0061434D01*
X0192174Y0036982D01*
X0191218Y0036026D01*
X0190700Y0034776D01*
X0190700Y0025508D01*
X0187692Y0022500D01*
X0164258Y0022500D01*
X0163750Y0023008D01*
X0163750Y0024233D01*
X0164269Y0024448D01*
X0165793Y0025972D01*
X0167317Y0024448D01*
X0169572Y0023514D01*
X0172014Y0023514D01*
X0174269Y0024448D01*
X0175793Y0025972D01*
X0177317Y0024448D01*
X0179572Y0023514D01*
X0182014Y0023514D01*
X0184269Y0024448D01*
X0185996Y0026175D01*
X0186930Y0028430D01*
X0186930Y0030872D01*
X0185996Y0033128D01*
X0184269Y0034854D01*
X0182014Y0035788D01*
X0179572Y0035788D01*
X0177317Y0034854D01*
X0175793Y0033330D01*
X0174269Y0034854D01*
X0172366Y0035642D01*
X0169482Y0038526D01*
X0168526Y0039482D01*
X0167276Y0040000D01*
X0149386Y0040000D01*
X0144162Y0045224D01*
X0144194Y0045301D01*
X0144194Y0047742D01*
X0143259Y0049998D01*
X0141533Y0051724D01*
X0139277Y0052658D01*
X0136836Y0052658D01*
X0134580Y0051724D01*
X0132856Y0050000D01*
X0125508Y0050000D01*
X0124094Y0051414D01*
X0124094Y0052862D01*
X0124171Y0052893D01*
X0125897Y0054620D01*
X0126831Y0056875D01*
X0126831Y0059317D01*
X0125897Y0061572D01*
X0124171Y0063299D01*
X0121915Y0064233D01*
X0119474Y0064233D01*
X0117218Y0063299D01*
X0115492Y0061572D01*
X0114557Y0059317D01*
X0114557Y0056875D01*
X0115492Y0054620D01*
X0117218Y0052893D01*
X0117294Y0052862D01*
X0117294Y0049329D01*
X0117812Y0048080D01*
X0121218Y0044674D01*
X0122174Y0043718D01*
X0123424Y0043200D01*
X0132790Y0043200D01*
X0132854Y0043045D01*
X0134580Y0041319D01*
X0136836Y0040384D01*
X0139277Y0040384D01*
X0139354Y0040416D01*
X0146052Y0033718D01*
X0147302Y0033200D01*
X0155663Y0033200D01*
X0155590Y0033128D01*
X0154656Y0030872D01*
X0154656Y0028430D01*
X0155590Y0026175D01*
X0156950Y0024815D01*
X0156950Y0020924D01*
X0157468Y0019674D01*
X0160668Y0016473D01*
X0160611Y0016416D01*
X0160611Y0016448D01*
X0159322Y0017737D01*
X0149626Y0017737D01*
X0148337Y0016448D01*
X0148337Y0006752D01*
X0149626Y0005463D01*
X0159322Y0005463D01*
X0160611Y0006752D01*
X0160611Y0006784D01*
X0160998Y0006397D01*
X0163253Y0005463D01*
X0165695Y0005463D01*
X0167950Y0006397D01*
X0169677Y0008124D01*
X0170132Y0006394D02*
X0167942Y0006394D01*
X0161006Y0006394D02*
X0160253Y0006394D01*
X0148695Y0006394D02*
X0104890Y0006394D01*
X0103854Y0005965D02*
X0106110Y0006899D01*
X0107836Y0008626D01*
X0108770Y0010881D01*
X0108770Y0013323D01*
X0107836Y0015578D01*
X0106110Y0017305D01*
X0103854Y0018239D01*
X0101413Y0018239D01*
X0099157Y0017305D01*
X0097431Y0015578D01*
X0096496Y0013323D01*
X0096496Y0010881D01*
X0097431Y0008626D01*
X0099157Y0006899D01*
X0101413Y0005965D01*
X0103854Y0005965D01*
X0106803Y0007593D02*
X0148337Y0007593D01*
X0148337Y0008791D02*
X0127177Y0008791D01*
X0126834Y0008680D02*
X0127662Y0008949D01*
X0128439Y0009345D01*
X0129144Y0009857D01*
X0129760Y0010473D01*
X0130273Y0011178D01*
X0130668Y0011955D01*
X0130938Y0012784D01*
X0131074Y0013645D01*
X0131074Y0013696D01*
X0125921Y0013696D01*
X0125921Y0008543D01*
X0125973Y0008543D01*
X0126834Y0008680D01*
X0125921Y0008791D02*
X0125153Y0008791D01*
X0125153Y0008543D02*
X0125153Y0013696D01*
X0125921Y0013696D01*
X0125921Y0014465D01*
X0125153Y0014465D01*
X0125153Y0019617D01*
X0125101Y0019617D01*
X0124240Y0019481D01*
X0123412Y0019212D01*
X0122635Y0018816D01*
X0121930Y0018304D01*
X0121314Y0017687D01*
X0120801Y0016982D01*
X0120406Y0016206D01*
X0120136Y0015377D01*
X0120000Y0014516D01*
X0120000Y0014465D01*
X0125153Y0014465D01*
X0125153Y0013696D01*
X0120000Y0013696D01*
X0120000Y0013645D01*
X0120136Y0012784D01*
X0120406Y0011955D01*
X0120801Y0011178D01*
X0121314Y0010473D01*
X0121930Y0009857D01*
X0122635Y0009345D01*
X0123412Y0008949D01*
X0124240Y0008680D01*
X0125101Y0008543D01*
X0125153Y0008543D01*
X0123897Y0008791D02*
X0107905Y0008791D01*
X0108401Y0009990D02*
X0121797Y0009990D01*
X0120796Y0011188D02*
X0108770Y0011188D01*
X0108770Y0012387D02*
X0120265Y0012387D01*
X0120009Y0013585D02*
X0108662Y0013585D01*
X0108165Y0014784D02*
X0120042Y0014784D01*
X0120333Y0015982D02*
X0107432Y0015982D01*
X0106234Y0017181D02*
X0120945Y0017181D01*
X0122034Y0018379D02*
X0018937Y0018379D01*
X0018937Y0017737D02*
X0018937Y0020303D01*
X0019013Y0020334D01*
X0020740Y0022061D01*
X0020771Y0022137D01*
X0024318Y0022137D01*
X0024350Y0022061D01*
X0026076Y0020334D01*
X0028332Y0019400D01*
X0030773Y0019400D01*
X0033029Y0020334D01*
X0034755Y0022061D01*
X0035690Y0024316D01*
X0035690Y0026758D01*
X0034755Y0029013D01*
X0033029Y0030740D01*
X0030773Y0031674D01*
X0028332Y0031674D01*
X0026076Y0030740D01*
X0024350Y0029013D01*
X0024318Y0028937D01*
X0020771Y0028937D01*
X0020740Y0029013D01*
X0019013Y0030740D01*
X0016758Y0031674D01*
X0014316Y0031674D01*
X0012061Y0030740D01*
X0010334Y0029013D01*
X0009400Y0026758D01*
X0009400Y0024316D01*
X0010334Y0022061D01*
X0012061Y0020334D01*
X0012137Y0020303D01*
X0012137Y0017737D01*
X0010689Y0017737D01*
X0009400Y0016448D01*
X0009400Y0006752D01*
X0010689Y0005463D01*
X0020385Y0005463D01*
X0021674Y0006752D01*
X0021674Y0016448D01*
X0020385Y0017737D01*
X0018937Y0017737D01*
X0018937Y0019578D02*
X0027903Y0019578D01*
X0025635Y0020776D02*
X0019455Y0020776D01*
X0020654Y0021975D02*
X0024436Y0021975D01*
X0031202Y0019578D02*
X0038739Y0019578D01*
X0039035Y0019282D02*
X0048732Y0019282D01*
X0050020Y0020571D01*
X0050020Y0030267D01*
X0048732Y0031556D01*
X0039035Y0031556D01*
X0037746Y0030267D01*
X0037746Y0020571D01*
X0039035Y0019282D01*
X0037746Y0020776D02*
X0033471Y0020776D01*
X0034669Y0021975D02*
X0037746Y0021975D01*
X0037746Y0023173D02*
X0035216Y0023173D01*
X0035690Y0024372D02*
X0037746Y0024372D01*
X0037746Y0025570D02*
X0035690Y0025570D01*
X0035685Y0026769D02*
X0037746Y0026769D01*
X0037746Y0027967D02*
X0035189Y0027967D01*
X0034603Y0029166D02*
X0037746Y0029166D01*
X0037844Y0030364D02*
X0033405Y0030364D01*
X0031042Y0031563D02*
X0061965Y0031563D01*
X0061468Y0030364D02*
X0049923Y0030364D01*
X0050020Y0029166D02*
X0061132Y0029166D01*
X0061132Y0027967D02*
X0050020Y0027967D01*
X0050020Y0026769D02*
X0061274Y0026769D01*
X0061771Y0025570D02*
X0050020Y0025570D01*
X0050020Y0024372D02*
X0062551Y0024372D01*
X0063749Y0023173D02*
X0050020Y0023173D01*
X0050020Y0021975D02*
X0120437Y0021975D01*
X0120689Y0021723D02*
X0119400Y0023012D01*
X0119400Y0032708D01*
X0120689Y0033997D01*
X0130385Y0033997D01*
X0131674Y0032708D01*
X0131674Y0023012D01*
X0130385Y0021723D01*
X0120689Y0021723D01*
X0119400Y0023173D02*
X0070789Y0023173D01*
X0071988Y0024372D02*
X0119400Y0024372D01*
X0119400Y0025570D02*
X0072768Y0025570D01*
X0073264Y0026769D02*
X0119400Y0026769D01*
X0119400Y0027967D02*
X0073406Y0027967D01*
X0073406Y0029166D02*
X0101775Y0029166D01*
X0101875Y0029124D02*
X0104317Y0029124D01*
X0106572Y0030059D01*
X0108299Y0031785D01*
X0109233Y0034041D01*
X0109233Y0036482D01*
X0108299Y0038738D01*
X0106572Y0040464D01*
X0104317Y0041398D01*
X0101875Y0041398D01*
X0099620Y0040464D01*
X0097893Y0038738D01*
X0096959Y0036482D01*
X0096959Y0034041D01*
X0097893Y0031785D01*
X0099620Y0030059D01*
X0101875Y0029124D01*
X0104417Y0029166D02*
X0119400Y0029166D01*
X0119400Y0030364D02*
X0106878Y0030364D01*
X0108076Y0031563D02*
X0119400Y0031563D01*
X0119453Y0032761D02*
X0108703Y0032761D01*
X0109200Y0033960D02*
X0120652Y0033960D01*
X0130422Y0033960D02*
X0145810Y0033960D01*
X0144611Y0035158D02*
X0109233Y0035158D01*
X0109233Y0036357D02*
X0143413Y0036357D01*
X0142214Y0037555D02*
X0108789Y0037555D01*
X0108283Y0038754D02*
X0141016Y0038754D01*
X0139817Y0039952D02*
X0107084Y0039952D01*
X0104914Y0041151D02*
X0134985Y0041151D01*
X0133550Y0042349D02*
X0071931Y0042349D01*
X0071164Y0043548D02*
X0122584Y0043548D01*
X0121145Y0044746D02*
X0072362Y0044746D01*
X0072923Y0045945D02*
X0119947Y0045945D01*
X0118748Y0047143D02*
X0073406Y0047143D01*
X0073406Y0048342D02*
X0117703Y0048342D01*
X0117294Y0049540D02*
X0073406Y0049540D01*
X0072915Y0050739D02*
X0117294Y0050739D01*
X0117294Y0051937D02*
X0072343Y0051937D01*
X0071145Y0053136D02*
X0116976Y0053136D01*
X0115777Y0054334D02*
X0068815Y0054334D01*
X0067841Y0055533D02*
X0115113Y0055533D01*
X0114617Y0056732D02*
X0069040Y0056732D01*
X0070238Y0057930D02*
X0114557Y0057930D01*
X0114557Y0059129D02*
X0104327Y0059129D01*
X0101865Y0059129D02*
X0090862Y0059129D01*
X0088401Y0059129D02*
X0071437Y0059129D01*
X0072635Y0060327D02*
X0085887Y0060327D01*
X0084688Y0061526D02*
X0073834Y0061526D01*
X0075032Y0062724D02*
X0084040Y0062724D01*
X0083543Y0063923D02*
X0076231Y0063923D01*
X0077429Y0065121D02*
X0083494Y0065121D01*
X0083494Y0066320D02*
X0078628Y0066320D01*
X0079826Y0067518D02*
X0083924Y0067518D01*
X0084420Y0068717D02*
X0081025Y0068717D01*
X0082223Y0069915D02*
X0085606Y0069915D01*
X0087723Y0071114D02*
X0083422Y0071114D01*
X0084620Y0072312D02*
X0099854Y0072312D01*
X0099854Y0071114D02*
X0091540Y0071114D01*
X0093657Y0069915D02*
X0099071Y0069915D01*
X0097885Y0068717D02*
X0094843Y0068717D01*
X0099854Y0073511D02*
X0085819Y0073511D01*
X0087017Y0074709D02*
X0099854Y0074709D01*
X0099854Y0075908D02*
X0093612Y0075908D01*
X0095392Y0077106D02*
X0098832Y0077106D01*
X0097878Y0078305D02*
X0096438Y0078305D01*
X0096934Y0079503D02*
X0097382Y0079503D01*
X0088643Y0075908D02*
X0088216Y0075908D01*
X0083393Y0080702D02*
X0082855Y0080702D01*
X0082855Y0081900D02*
X0084592Y0081900D01*
X0085138Y0083099D02*
X0082740Y0083099D01*
X0082244Y0084297D02*
X0085635Y0084297D01*
X0086423Y0085496D02*
X0081501Y0085496D01*
X0080303Y0086694D02*
X0087622Y0086694D01*
X0091916Y0087893D02*
X0075234Y0087893D01*
X0074035Y0089091D02*
X0090718Y0089091D01*
X0089519Y0090290D02*
X0064227Y0090290D01*
X0063028Y0091488D02*
X0088321Y0091488D01*
X0087780Y0092687D02*
X0052821Y0092687D01*
X0051623Y0093885D02*
X0087728Y0093885D01*
X0087728Y0095084D02*
X0050424Y0095084D01*
X0049226Y0096282D02*
X0052926Y0096282D01*
X0052556Y0096471D02*
X0053333Y0096075D01*
X0054162Y0095806D01*
X0055022Y0095669D01*
X0055074Y0095669D01*
X0055074Y0100822D01*
X0049921Y0100822D01*
X0049921Y0100771D01*
X0050058Y0099910D01*
X0050327Y0099081D01*
X0050723Y0098304D01*
X0051235Y0097599D01*
X0051851Y0096983D01*
X0052556Y0096471D01*
X0051353Y0097481D02*
X0048027Y0097481D01*
X0046829Y0098679D02*
X0050531Y0098679D01*
X0050068Y0099878D02*
X0045630Y0099878D01*
X0044432Y0101076D02*
X0055074Y0101076D01*
X0055843Y0101076D02*
X0087728Y0101076D01*
X0087728Y0099878D02*
X0060849Y0099878D01*
X0060859Y0099910D02*
X0060995Y0100771D01*
X0060995Y0100822D01*
X0055843Y0100822D01*
X0055843Y0095669D01*
X0055894Y0095669D01*
X0056755Y0095806D01*
X0057584Y0096075D01*
X0058360Y0096471D01*
X0059065Y0096983D01*
X0059682Y0097599D01*
X0060194Y0098304D01*
X0060590Y0099081D01*
X0060859Y0099910D01*
X0060385Y0098679D02*
X0087728Y0098679D01*
X0087728Y0097481D02*
X0059563Y0097481D01*
X0057991Y0096282D02*
X0087728Y0096282D01*
X0087728Y0102275D02*
X0060895Y0102275D01*
X0060517Y0103473D02*
X0087728Y0103473D01*
X0087728Y0104672D02*
X0059784Y0104672D01*
X0061108Y0105870D02*
X0074514Y0105870D01*
X0072570Y0107069D02*
X0061595Y0107069D01*
X0051132Y0104672D02*
X0040836Y0104672D01*
X0039638Y0105870D02*
X0049809Y0105870D01*
X0049321Y0107069D02*
X0038439Y0107069D01*
X0037241Y0108268D02*
X0049321Y0108268D01*
X0049321Y0109466D02*
X0036042Y0109466D01*
X0035428Y0110665D02*
X0049321Y0110665D01*
X0049321Y0111863D02*
X0034932Y0111863D01*
X0033873Y0113062D02*
X0049321Y0113062D01*
X0049321Y0114260D02*
X0032674Y0114260D01*
X0030592Y0115459D02*
X0049321Y0115459D01*
X0049924Y0116657D02*
X0031595Y0116657D01*
X0033090Y0117856D02*
X0052058Y0117856D01*
X0052058Y0119054D02*
X0034289Y0119054D01*
X0035104Y0120253D02*
X0052058Y0120253D01*
X0052058Y0121451D02*
X0035601Y0121451D01*
X0036097Y0122650D02*
X0052058Y0122650D01*
X0052318Y0123848D02*
X0036312Y0123848D01*
X0036312Y0125047D02*
X0053152Y0125047D01*
X0052955Y0126245D02*
X0036312Y0126245D01*
X0036141Y0127444D02*
X0052955Y0127444D01*
X0052955Y0128642D02*
X0035645Y0128642D01*
X0035148Y0129841D02*
X0053190Y0129841D01*
X0053687Y0131039D02*
X0034395Y0131039D01*
X0033197Y0132238D02*
X0054262Y0132238D01*
X0055460Y0133436D02*
X0031853Y0133436D01*
X0028959Y0134635D02*
X0057175Y0134635D01*
X0064135Y0134635D02*
X0077175Y0134635D01*
X0076293Y0134269D02*
X0079123Y0135442D01*
X0082187Y0135442D01*
X0085017Y0134269D01*
X0087183Y0132103D01*
X0088355Y0129273D01*
X0088355Y0126210D01*
X0087183Y0123380D01*
X0085017Y0121214D01*
X0082187Y0120042D01*
X0079123Y0120042D01*
X0076293Y0121214D01*
X0074127Y0123380D01*
X0072955Y0126210D01*
X0072955Y0129273D01*
X0074127Y0132103D01*
X0076293Y0134269D01*
X0075460Y0133436D02*
X0065850Y0133436D01*
X0067049Y0132238D02*
X0074262Y0132238D01*
X0073687Y0131039D02*
X0067624Y0131039D01*
X0068120Y0129841D02*
X0073190Y0129841D01*
X0072955Y0128642D02*
X0068355Y0128642D01*
X0068355Y0127444D02*
X0072955Y0127444D01*
X0072955Y0126245D02*
X0068355Y0126245D01*
X0067873Y0125047D02*
X0073437Y0125047D01*
X0073933Y0123848D02*
X0067377Y0123848D01*
X0066452Y0122650D02*
X0074858Y0122650D01*
X0076056Y0121451D02*
X0065254Y0121451D01*
X0062696Y0120253D02*
X0078614Y0120253D01*
X0082696Y0120253D02*
X0098614Y0120253D01*
X0099123Y0120042D02*
X0102187Y0120042D01*
X0105017Y0121214D01*
X0107183Y0123380D01*
X0107279Y0123613D01*
X0115181Y0115711D01*
X0113878Y0114407D01*
X0112943Y0112151D01*
X0112943Y0109710D01*
X0113878Y0107454D01*
X0115604Y0105728D01*
X0117860Y0104794D01*
X0120301Y0104794D01*
X0122557Y0105728D01*
X0124283Y0107454D01*
X0125217Y0109710D01*
X0125217Y0112151D01*
X0124283Y0114407D01*
X0122557Y0116133D01*
X0122480Y0116165D01*
X0122480Y0117296D01*
X0121963Y0118546D01*
X0110732Y0129776D01*
X0109776Y0130732D01*
X0108526Y0131250D01*
X0107536Y0131250D01*
X0107183Y0132103D01*
X0105017Y0134269D01*
X0102187Y0135442D01*
X0099123Y0135442D01*
X0096293Y0134269D01*
X0094127Y0132103D01*
X0092955Y0129273D01*
X0092955Y0126210D01*
X0094127Y0123380D01*
X0096293Y0121214D01*
X0099123Y0120042D01*
X0096056Y0121451D02*
X0085254Y0121451D01*
X0086452Y0122650D02*
X0094858Y0122650D01*
X0093933Y0123848D02*
X0087377Y0123848D01*
X0087873Y0125047D02*
X0093437Y0125047D01*
X0092955Y0126245D02*
X0088355Y0126245D01*
X0088355Y0127444D02*
X0092955Y0127444D01*
X0092955Y0128642D02*
X0088355Y0128642D01*
X0088120Y0129841D02*
X0093190Y0129841D01*
X0093687Y0131039D02*
X0087624Y0131039D01*
X0087049Y0132238D02*
X0094262Y0132238D01*
X0095460Y0133436D02*
X0085850Y0133436D01*
X0084135Y0134635D02*
X0097175Y0134635D01*
X0104135Y0134635D02*
X0113563Y0134635D01*
X0113563Y0134484D02*
X0118716Y0134484D01*
X0118716Y0133716D01*
X0119484Y0133716D01*
X0119484Y0128563D01*
X0123248Y0128563D01*
X0123655Y0128672D01*
X0124019Y0128883D01*
X0124317Y0129181D01*
X0124528Y0129545D01*
X0124637Y0129952D01*
X0124637Y0133716D01*
X0119484Y0133716D01*
X0119484Y0134484D01*
X0124637Y0134484D01*
X0124637Y0138248D01*
X0124528Y0138655D01*
X0124317Y0139019D01*
X0124019Y0139317D01*
X0123655Y0139528D01*
X0123248Y0139637D01*
X0119484Y0139637D01*
X0119484Y0134484D01*
X0118716Y0134484D01*
X0118716Y0139637D01*
X0114952Y0139637D01*
X0114545Y0139528D01*
X0114181Y0139317D01*
X0113883Y0139019D01*
X0113672Y0138655D01*
X0113563Y0138248D01*
X0113563Y0134484D01*
X0113563Y0133716D02*
X0113563Y0129952D01*
X0113672Y0129545D01*
X0113883Y0129181D01*
X0114181Y0128883D01*
X0114545Y0128672D01*
X0114952Y0128563D01*
X0118716Y0128563D01*
X0118716Y0133716D01*
X0113563Y0133716D01*
X0113563Y0133436D02*
X0105850Y0133436D01*
X0107049Y0132238D02*
X0113563Y0132238D01*
X0113563Y0131039D02*
X0109035Y0131039D01*
X0110668Y0129841D02*
X0113593Y0129841D01*
X0114657Y0128642D02*
X0111866Y0128642D01*
X0113065Y0127444D02*
X0132050Y0127444D01*
X0132050Y0128642D02*
X0123543Y0128642D01*
X0124607Y0129841D02*
X0132073Y0129841D01*
X0132569Y0131039D02*
X0124637Y0131039D01*
X0124637Y0132238D02*
X0133066Y0132238D01*
X0134043Y0133436D02*
X0124637Y0133436D01*
X0124637Y0134635D02*
X0135241Y0134635D01*
X0137928Y0135833D02*
X0124637Y0135833D01*
X0124637Y0137032D02*
X0143720Y0137032D01*
X0144918Y0138230D02*
X0124637Y0138230D01*
X0123826Y0139429D02*
X0146117Y0139429D01*
X0147315Y0140627D02*
X0003800Y0140627D01*
X0003800Y0139429D02*
X0114374Y0139429D01*
X0113563Y0138230D02*
X0003800Y0138230D01*
X0003800Y0137032D02*
X0113563Y0137032D01*
X0113563Y0135833D02*
X0003800Y0135833D01*
X0003800Y0134635D02*
X0024241Y0134635D01*
X0021347Y0133436D02*
X0003800Y0133436D01*
X0003800Y0132238D02*
X0020003Y0132238D01*
X0018805Y0131039D02*
X0003800Y0131039D01*
X0003800Y0129841D02*
X0018052Y0129841D01*
X0017555Y0128642D02*
X0003800Y0128642D01*
X0003800Y0127444D02*
X0017059Y0127444D01*
X0016888Y0126245D02*
X0003800Y0126245D01*
X0003800Y0125047D02*
X0016888Y0125047D01*
X0016888Y0123848D02*
X0003800Y0123848D01*
X0003800Y0122650D02*
X0017103Y0122650D01*
X0017599Y0121451D02*
X0003800Y0121451D01*
X0003800Y0120253D02*
X0018096Y0120253D01*
X0018911Y0119054D02*
X0003800Y0119054D01*
X0003800Y0117856D02*
X0020110Y0117856D01*
X0021605Y0116657D02*
X0003800Y0116657D01*
X0003800Y0115459D02*
X0022608Y0115459D01*
X0020525Y0114260D02*
X0003800Y0114260D01*
X0003800Y0113062D02*
X0019327Y0113062D01*
X0018268Y0111863D02*
X0003800Y0111863D01*
X0003800Y0110665D02*
X0017772Y0110665D01*
X0017275Y0109466D02*
X0003800Y0109466D01*
X0003800Y0108268D02*
X0016888Y0108268D01*
X0016888Y0107069D02*
X0003800Y0107069D01*
X0003800Y0105870D02*
X0016888Y0105870D01*
X0016888Y0104672D02*
X0003800Y0104672D01*
X0003800Y0103473D02*
X0017383Y0103473D01*
X0017879Y0102275D02*
X0003800Y0102275D01*
X0003800Y0101076D02*
X0018389Y0101076D01*
X0019587Y0099878D02*
X0003800Y0099878D01*
X0003800Y0098679D02*
X0020786Y0098679D01*
X0023237Y0097481D02*
X0003800Y0097481D01*
X0003800Y0096282D02*
X0021048Y0096282D01*
X0019849Y0095084D02*
X0003800Y0095084D01*
X0003800Y0093885D02*
X0018651Y0093885D01*
X0017988Y0092687D02*
X0003800Y0092687D01*
X0003800Y0091488D02*
X0017492Y0091488D01*
X0016995Y0090290D02*
X0003800Y0090290D01*
X0003800Y0089091D02*
X0016888Y0089091D01*
X0016888Y0087893D02*
X0003800Y0087893D01*
X0003800Y0086694D02*
X0016888Y0086694D01*
X0017167Y0085496D02*
X0003800Y0085496D01*
X0003800Y0084297D02*
X0017663Y0084297D01*
X0018160Y0083099D02*
X0003800Y0083099D01*
X0003800Y0081900D02*
X0019065Y0081900D01*
X0020264Y0080702D02*
X0003800Y0080702D01*
X0003800Y0079503D02*
X0021976Y0079503D01*
X0031224Y0079503D02*
X0041526Y0079503D01*
X0040328Y0080702D02*
X0032936Y0080702D01*
X0034135Y0081900D02*
X0039129Y0081900D01*
X0037931Y0083099D02*
X0035040Y0083099D01*
X0035537Y0084297D02*
X0036732Y0084297D01*
X0043952Y0086694D02*
X0049197Y0086694D01*
X0047999Y0087893D02*
X0042753Y0087893D01*
X0041555Y0089091D02*
X0046800Y0089091D01*
X0045602Y0090290D02*
X0040356Y0090290D01*
X0038442Y0091488D02*
X0044403Y0091488D01*
X0043205Y0092687D02*
X0035212Y0092687D01*
X0034549Y0093885D02*
X0042006Y0093885D01*
X0040808Y0095084D02*
X0033351Y0095084D01*
X0032152Y0096282D02*
X0039609Y0096282D01*
X0038411Y0097481D02*
X0029963Y0097481D01*
X0032414Y0098679D02*
X0037212Y0098679D01*
X0036014Y0099878D02*
X0033612Y0099878D01*
X0034811Y0101076D02*
X0034815Y0101076D01*
X0042035Y0103473D02*
X0050399Y0103473D01*
X0050022Y0102275D02*
X0043233Y0102275D01*
X0055074Y0099878D02*
X0055843Y0099878D01*
X0055843Y0098679D02*
X0055074Y0098679D01*
X0055074Y0097481D02*
X0055843Y0097481D01*
X0055843Y0096282D02*
X0055074Y0096282D01*
X0055605Y0091488D02*
X0054020Y0091488D01*
X0050396Y0085496D02*
X0045150Y0085496D01*
X0046349Y0084297D02*
X0051594Y0084297D01*
X0054092Y0083099D02*
X0047547Y0083099D01*
X0048746Y0081900D02*
X0055258Y0081900D01*
X0057329Y0080702D02*
X0049944Y0080702D01*
X0051143Y0079503D02*
X0070944Y0079503D01*
X0070581Y0080702D02*
X0061304Y0080702D01*
X0063375Y0081900D02*
X0070581Y0081900D01*
X0070411Y0083099D02*
X0064542Y0083099D01*
X0071440Y0078305D02*
X0052341Y0078305D01*
X0053540Y0077106D02*
X0072533Y0077106D01*
X0074424Y0075908D02*
X0054738Y0075908D01*
X0055937Y0074709D02*
X0077401Y0074709D01*
X0076202Y0073511D02*
X0057135Y0073511D01*
X0061373Y0072312D02*
X0075004Y0072312D01*
X0073805Y0071114D02*
X0063403Y0071114D01*
X0064553Y0069915D02*
X0072607Y0069915D01*
X0071408Y0068717D02*
X0065050Y0068717D01*
X0065454Y0067518D02*
X0070210Y0067518D01*
X0069011Y0066320D02*
X0065454Y0066320D01*
X0065379Y0065121D02*
X0067813Y0065121D01*
X0066614Y0063923D02*
X0064883Y0063923D01*
X0065416Y0062724D02*
X0064198Y0062724D01*
X0064217Y0061526D02*
X0063000Y0061526D01*
X0063019Y0060327D02*
X0056264Y0060327D01*
X0055633Y0061526D02*
X0055065Y0061526D01*
X0054435Y0062724D02*
X0053867Y0062724D01*
X0053750Y0063923D02*
X0052668Y0063923D01*
X0052146Y0065121D02*
X0053254Y0065121D01*
X0053180Y0066320D02*
X0052146Y0066320D01*
X0051929Y0067518D02*
X0053180Y0067518D01*
X0052313Y0068717D02*
X0051433Y0068717D01*
X0051114Y0069915D02*
X0050547Y0069915D01*
X0049916Y0071114D02*
X0049153Y0071114D01*
X0048717Y0072312D02*
X0003800Y0072312D01*
X0003800Y0071114D02*
X0012866Y0071114D01*
X0012533Y0070976D02*
X0010807Y0069250D01*
X0009872Y0066994D01*
X0009872Y0064552D01*
X0010807Y0062297D01*
X0012533Y0060571D01*
X0012609Y0060539D01*
X0012609Y0050967D01*
X0012061Y0050740D01*
X0010334Y0049013D01*
X0009400Y0046758D01*
X0009400Y0044316D01*
X0010334Y0042061D01*
X0012061Y0040334D01*
X0014316Y0039400D01*
X0016758Y0039400D01*
X0019013Y0040334D01*
X0020740Y0042061D01*
X0021674Y0044316D01*
X0021674Y0046758D01*
X0020740Y0049013D01*
X0019409Y0050344D01*
X0019409Y0060539D01*
X0019486Y0060571D01*
X0021212Y0062297D01*
X0022146Y0064552D01*
X0022146Y0066994D01*
X0021212Y0069250D01*
X0019486Y0070976D01*
X0017230Y0071910D01*
X0014789Y0071910D01*
X0012533Y0070976D01*
X0011472Y0069915D02*
X0003800Y0069915D01*
X0003800Y0068717D02*
X0010586Y0068717D01*
X0010090Y0067518D02*
X0003800Y0067518D01*
X0003800Y0066320D02*
X0009872Y0066320D01*
X0009872Y0065121D02*
X0003800Y0065121D01*
X0003800Y0063923D02*
X0010133Y0063923D01*
X0010630Y0062724D02*
X0003800Y0062724D01*
X0003800Y0061526D02*
X0011578Y0061526D01*
X0012609Y0060327D02*
X0003800Y0060327D01*
X0003800Y0059129D02*
X0012609Y0059129D01*
X0012609Y0057930D02*
X0003800Y0057930D01*
X0003800Y0056732D02*
X0012609Y0056732D01*
X0012609Y0055533D02*
X0003800Y0055533D01*
X0003800Y0054334D02*
X0012609Y0054334D01*
X0012609Y0053136D02*
X0003800Y0053136D01*
X0003800Y0051937D02*
X0012609Y0051937D01*
X0012060Y0050739D02*
X0003800Y0050739D01*
X0003800Y0049540D02*
X0010861Y0049540D01*
X0010056Y0048342D02*
X0003800Y0048342D01*
X0003800Y0047143D02*
X0009560Y0047143D01*
X0009400Y0045945D02*
X0003800Y0045945D01*
X0003800Y0044746D02*
X0009400Y0044746D01*
X0009718Y0043548D02*
X0003800Y0043548D01*
X0003800Y0042349D02*
X0010215Y0042349D01*
X0011244Y0041151D02*
X0003800Y0041151D01*
X0003800Y0039952D02*
X0012983Y0039952D01*
X0018091Y0039952D02*
X0055939Y0039952D01*
X0057138Y0038754D02*
X0003800Y0038754D01*
X0003800Y0037555D02*
X0058336Y0037555D01*
X0059535Y0036357D02*
X0003800Y0036357D01*
X0003800Y0035158D02*
X0061146Y0035158D01*
X0062963Y0033960D02*
X0003800Y0033960D01*
X0003800Y0032761D02*
X0063019Y0032761D01*
X0071519Y0032761D02*
X0084691Y0032761D01*
X0084500Y0033136D02*
X0084896Y0032359D01*
X0085408Y0031654D01*
X0086024Y0031038D01*
X0086729Y0030526D01*
X0087506Y0030130D01*
X0088335Y0029861D01*
X0089196Y0029724D01*
X0089247Y0029724D01*
X0089247Y0034877D01*
X0084094Y0034877D01*
X0084094Y0034826D01*
X0084231Y0033965D01*
X0084500Y0033136D01*
X0084232Y0033960D02*
X0071576Y0033960D01*
X0072597Y0035158D02*
X0089247Y0035158D01*
X0089247Y0034877D02*
X0089247Y0035646D01*
X0089247Y0040798D01*
X0089196Y0040798D01*
X0088335Y0040662D01*
X0087506Y0040393D01*
X0086729Y0039997D01*
X0086024Y0039485D01*
X0085408Y0038869D01*
X0084896Y0038163D01*
X0084500Y0037387D01*
X0084231Y0036558D01*
X0084094Y0035697D01*
X0084094Y0035646D01*
X0089247Y0035646D01*
X0090016Y0035646D01*
X0090016Y0040798D01*
X0090067Y0040798D01*
X0090928Y0040662D01*
X0091757Y0040393D01*
X0092534Y0039997D01*
X0093239Y0039485D01*
X0093855Y0038869D01*
X0094367Y0038163D01*
X0094763Y0037387D01*
X0095032Y0036558D01*
X0095168Y0035697D01*
X0095168Y0035646D01*
X0090016Y0035646D01*
X0090016Y0034877D01*
X0095168Y0034877D01*
X0095168Y0034826D01*
X0095032Y0033965D01*
X0094763Y0033136D01*
X0094367Y0032359D01*
X0093855Y0031654D01*
X0093239Y0031038D01*
X0092534Y0030526D01*
X0091757Y0030130D01*
X0090928Y0029861D01*
X0090067Y0029724D01*
X0090016Y0029724D01*
X0090016Y0034877D01*
X0089247Y0034877D01*
X0090016Y0035158D02*
X0096959Y0035158D01*
X0096993Y0033960D02*
X0095031Y0033960D01*
X0094572Y0032761D02*
X0097489Y0032761D01*
X0098116Y0031563D02*
X0093763Y0031563D01*
X0092217Y0030364D02*
X0099314Y0030364D01*
X0090016Y0030364D02*
X0089247Y0030364D01*
X0089247Y0031563D02*
X0090016Y0031563D01*
X0090016Y0032761D02*
X0089247Y0032761D01*
X0089247Y0033960D02*
X0090016Y0033960D01*
X0090016Y0036357D02*
X0089247Y0036357D01*
X0089247Y0037555D02*
X0090016Y0037555D01*
X0090016Y0038754D02*
X0089247Y0038754D01*
X0089247Y0039952D02*
X0090016Y0039952D01*
X0092595Y0039952D02*
X0099108Y0039952D01*
X0097909Y0038754D02*
X0093938Y0038754D01*
X0094677Y0037555D02*
X0097404Y0037555D01*
X0096959Y0036357D02*
X0095064Y0036357D01*
X0086668Y0039952D02*
X0073241Y0039952D01*
X0073406Y0038754D02*
X0085325Y0038754D01*
X0084586Y0037555D02*
X0073406Y0037555D01*
X0073094Y0036357D02*
X0084199Y0036357D01*
X0085500Y0031563D02*
X0072574Y0031563D01*
X0073070Y0030364D02*
X0087046Y0030364D01*
X0076110Y0017305D02*
X0073854Y0018239D01*
X0071413Y0018239D01*
X0069157Y0017305D01*
X0067431Y0015578D01*
X0066496Y0013323D01*
X0066496Y0010881D01*
X0067431Y0008626D01*
X0069157Y0006899D01*
X0071413Y0005965D01*
X0073854Y0005965D01*
X0076110Y0006899D01*
X0077836Y0008626D01*
X0078770Y0010881D01*
X0078770Y0013323D01*
X0077836Y0015578D01*
X0076110Y0017305D01*
X0076234Y0017181D02*
X0099033Y0017181D01*
X0097835Y0015982D02*
X0077432Y0015982D01*
X0078165Y0014784D02*
X0097102Y0014784D01*
X0096605Y0013585D02*
X0078662Y0013585D01*
X0078770Y0012387D02*
X0096496Y0012387D01*
X0096496Y0011188D02*
X0078770Y0011188D01*
X0078401Y0009990D02*
X0096866Y0009990D01*
X0097362Y0008791D02*
X0077905Y0008791D01*
X0076803Y0007593D02*
X0098464Y0007593D01*
X0100377Y0006394D02*
X0074890Y0006394D01*
X0070377Y0006394D02*
X0056572Y0006394D01*
X0056930Y0006752D02*
X0055641Y0005463D01*
X0045945Y0005463D01*
X0044656Y0006752D01*
X0044656Y0016448D01*
X0045945Y0017737D01*
X0055641Y0017737D01*
X0056930Y0016448D01*
X0056930Y0006752D01*
X0056930Y0007593D02*
X0068464Y0007593D01*
X0067362Y0008791D02*
X0056930Y0008791D01*
X0056930Y0009990D02*
X0066866Y0009990D01*
X0066496Y0011188D02*
X0056930Y0011188D01*
X0056930Y0012387D02*
X0066496Y0012387D01*
X0066605Y0013585D02*
X0056930Y0013585D01*
X0056930Y0014784D02*
X0067102Y0014784D01*
X0067835Y0015982D02*
X0056930Y0015982D01*
X0056198Y0017181D02*
X0069033Y0017181D01*
X0050020Y0020776D02*
X0157011Y0020776D01*
X0156950Y0021975D02*
X0130637Y0021975D01*
X0131674Y0023173D02*
X0156950Y0023173D01*
X0156950Y0024372D02*
X0131674Y0024372D01*
X0131674Y0025570D02*
X0156195Y0025570D01*
X0155344Y0026769D02*
X0131674Y0026769D01*
X0131674Y0027967D02*
X0154848Y0027967D01*
X0154656Y0029166D02*
X0131674Y0029166D01*
X0131674Y0030364D02*
X0154656Y0030364D01*
X0154942Y0031563D02*
X0131674Y0031563D01*
X0131621Y0032761D02*
X0155439Y0032761D01*
X0169254Y0038754D02*
X0186785Y0038754D01*
X0186391Y0038917D02*
X0188647Y0037983D01*
X0191088Y0037983D01*
X0193344Y0038917D01*
X0195070Y0040643D01*
X0196005Y0042899D01*
X0196005Y0045340D01*
X0195070Y0047596D01*
X0193344Y0049322D01*
X0191088Y0050257D01*
X0188647Y0050257D01*
X0186391Y0049322D01*
X0184665Y0047596D01*
X0183731Y0045340D01*
X0183731Y0042899D01*
X0184665Y0040643D01*
X0186391Y0038917D01*
X0185356Y0039952D02*
X0167391Y0039952D01*
X0171155Y0042933D02*
X0173411Y0041998D01*
X0175852Y0041998D01*
X0178108Y0042933D01*
X0179834Y0044659D01*
X0180768Y0046915D01*
X0180768Y0049356D01*
X0179834Y0051612D01*
X0178108Y0053338D01*
X0175852Y0054272D01*
X0173411Y0054272D01*
X0171155Y0053338D01*
X0169429Y0051612D01*
X0168494Y0049356D01*
X0168494Y0046915D01*
X0169429Y0044659D01*
X0171155Y0042933D01*
X0170540Y0043548D02*
X0167030Y0043548D01*
X0167624Y0044746D02*
X0169393Y0044746D01*
X0168896Y0045945D02*
X0168120Y0045945D01*
X0168131Y0047143D02*
X0168494Y0047143D01*
X0168494Y0048342D02*
X0168131Y0048342D01*
X0168571Y0049540D02*
X0167663Y0049540D01*
X0167124Y0050739D02*
X0169067Y0050739D01*
X0169755Y0051937D02*
X0165926Y0051937D01*
X0165394Y0053136D02*
X0170953Y0053136D01*
X0164949Y0054334D02*
X0209526Y0054334D01*
X0208328Y0053136D02*
X0178310Y0053136D01*
X0179508Y0051937D02*
X0207129Y0051937D01*
X0205931Y0050739D02*
X0180196Y0050739D01*
X0180692Y0049540D02*
X0186918Y0049540D01*
X0185411Y0048342D02*
X0180768Y0048342D01*
X0180768Y0047143D02*
X0184478Y0047143D01*
X0183981Y0045945D02*
X0180367Y0045945D01*
X0179870Y0044746D02*
X0183731Y0044746D01*
X0183731Y0043548D02*
X0178723Y0043548D01*
X0176700Y0042349D02*
X0183958Y0042349D01*
X0184455Y0041151D02*
X0163449Y0041151D01*
X0165832Y0042349D02*
X0172563Y0042349D01*
X0170453Y0037555D02*
X0192747Y0037555D01*
X0192950Y0038754D02*
X0193946Y0038754D01*
X0194379Y0039952D02*
X0195144Y0039952D01*
X0195281Y0041151D02*
X0196343Y0041151D01*
X0195777Y0042349D02*
X0197541Y0042349D01*
X0198740Y0043548D02*
X0196005Y0043548D01*
X0196005Y0044746D02*
X0199938Y0044746D01*
X0201137Y0045945D02*
X0195754Y0045945D01*
X0195258Y0047143D02*
X0202335Y0047143D01*
X0203534Y0048342D02*
X0194324Y0048342D01*
X0192818Y0049540D02*
X0204732Y0049540D01*
X0210753Y0045945D02*
X0217398Y0045945D01*
X0217176Y0047143D02*
X0211952Y0047143D01*
X0213150Y0048342D02*
X0217176Y0048342D01*
X0217431Y0049540D02*
X0214349Y0049540D01*
X0215547Y0050739D02*
X0217928Y0050739D01*
X0218869Y0051937D02*
X0216746Y0051937D01*
X0217944Y0053136D02*
X0219913Y0053136D01*
X0219913Y0054334D02*
X0219143Y0054334D01*
X0213122Y0057930D02*
X0161456Y0057930D01*
X0160258Y0059129D02*
X0214320Y0059129D01*
X0215519Y0060327D02*
X0159059Y0060327D01*
X0157861Y0061526D02*
X0216625Y0061526D01*
X0216625Y0062724D02*
X0177604Y0062724D01*
X0179098Y0063923D02*
X0216625Y0063923D01*
X0216625Y0065121D02*
X0180026Y0065121D01*
X0180522Y0066320D02*
X0216625Y0066320D01*
X0215861Y0067518D02*
X0180768Y0067518D01*
X0180768Y0068717D02*
X0188586Y0068717D01*
X0188571Y0068719D02*
X0189432Y0068583D01*
X0189483Y0068583D01*
X0189483Y0073735D01*
X0184331Y0073735D01*
X0184331Y0073684D01*
X0184467Y0072823D01*
X0184736Y0071994D01*
X0185132Y0071218D01*
X0185644Y0070513D01*
X0186261Y0069896D01*
X0186966Y0069384D01*
X0187742Y0068988D01*
X0188571Y0068719D01*
X0189483Y0068717D02*
X0190252Y0068717D01*
X0190252Y0068583D02*
X0190303Y0068583D01*
X0191164Y0068719D01*
X0191993Y0068988D01*
X0192770Y0069384D01*
X0193475Y0069896D01*
X0194091Y0070513D01*
X0194603Y0071218D01*
X0194999Y0071994D01*
X0195268Y0072823D01*
X0195405Y0073684D01*
X0195405Y0073735D01*
X0190252Y0073735D01*
X0190252Y0068583D01*
X0191149Y0068717D02*
X0214756Y0068717D01*
X0214260Y0069915D02*
X0193494Y0069915D01*
X0194528Y0071114D02*
X0213888Y0071114D01*
X0213888Y0072312D02*
X0195102Y0072312D01*
X0195377Y0073511D02*
X0213995Y0073511D01*
X0214491Y0074709D02*
X0195380Y0074709D01*
X0195405Y0074555D02*
X0195268Y0075416D01*
X0194999Y0076245D01*
X0194603Y0077022D01*
X0194091Y0077727D01*
X0193475Y0078343D01*
X0192770Y0078855D01*
X0191993Y0079251D01*
X0191164Y0079520D01*
X0190303Y0079657D01*
X0190252Y0079657D01*
X0190252Y0074504D01*
X0189483Y0074504D01*
X0189483Y0073735D01*
X0190252Y0073735D01*
X0190252Y0074504D01*
X0195405Y0074504D01*
X0195405Y0074555D01*
X0195109Y0075908D02*
X0215221Y0075908D01*
X0216273Y0077106D02*
X0205359Y0077106D01*
X0206669Y0078305D02*
X0215074Y0078305D01*
X0214430Y0079503D02*
X0207520Y0079503D01*
X0208017Y0080702D02*
X0213934Y0080702D01*
X0213888Y0081900D02*
X0208209Y0081900D01*
X0208209Y0083099D02*
X0213888Y0083099D01*
X0214320Y0084297D02*
X0207924Y0084297D01*
X0207428Y0085496D02*
X0214817Y0085496D01*
X0216007Y0086694D02*
X0206445Y0086694D01*
X0206250Y0087893D02*
X0215486Y0087893D01*
X0214601Y0089091D02*
X0206250Y0089091D01*
X0206250Y0090290D02*
X0214105Y0090290D01*
X0213888Y0091488D02*
X0206250Y0091488D01*
X0206250Y0092687D02*
X0213888Y0092687D01*
X0214150Y0093885D02*
X0206250Y0093885D01*
X0206250Y0095084D02*
X0214646Y0095084D01*
X0215595Y0096282D02*
X0206250Y0096282D01*
X0206165Y0097481D02*
X0215898Y0097481D01*
X0214772Y0098679D02*
X0205579Y0098679D01*
X0204380Y0099878D02*
X0214275Y0099878D01*
X0213888Y0101076D02*
X0203182Y0101076D01*
X0201983Y0102275D02*
X0213888Y0102275D01*
X0213979Y0103473D02*
X0200785Y0103473D01*
X0199586Y0104672D02*
X0214476Y0104672D01*
X0215184Y0105870D02*
X0198388Y0105870D01*
X0198875Y0107069D02*
X0197189Y0107069D01*
X0197513Y0108268D02*
X0195991Y0108268D01*
X0205269Y0107069D02*
X0216382Y0107069D01*
X0214110Y0109466D02*
X0207505Y0109466D01*
X0208001Y0110665D02*
X0212912Y0110665D01*
X0210279Y0111863D02*
X0208209Y0111863D01*
X0208209Y0113062D02*
X0209080Y0113062D01*
X0209554Y0112587D02*
X0209554Y0112587D01*
X0206632Y0108268D02*
X0255124Y0108268D01*
X0255700Y0107069D02*
X0252338Y0107069D01*
X0250409Y0107069D02*
X0249641Y0107069D01*
X0249641Y0107570D02*
X0249589Y0107570D01*
X0248729Y0107434D01*
X0247900Y0107164D01*
X0247123Y0106769D01*
X0246418Y0106256D01*
X0245802Y0105640D01*
X0245290Y0104935D01*
X0244894Y0104159D01*
X0244625Y0103330D01*
X0244488Y0102469D01*
X0244488Y0102417D01*
X0249641Y0102417D01*
X0249641Y0107570D01*
X0249641Y0105870D02*
X0250409Y0105870D01*
X0250409Y0104672D02*
X0249641Y0104672D01*
X0249641Y0103473D02*
X0250409Y0103473D01*
X0250410Y0102275D02*
X0255700Y0102275D01*
X0255700Y0103473D02*
X0255379Y0103473D01*
X0255700Y0104672D02*
X0254895Y0104672D01*
X0255700Y0105870D02*
X0254018Y0105870D01*
X0253926Y0109466D02*
X0251373Y0109466D01*
X0252572Y0110665D02*
X0252727Y0110665D01*
X0247712Y0107069D02*
X0223668Y0107069D01*
X0224867Y0105870D02*
X0246032Y0105870D01*
X0245155Y0104672D02*
X0225575Y0104672D01*
X0226071Y0103473D02*
X0244671Y0103473D01*
X0244571Y0101076D02*
X0226162Y0101076D01*
X0226162Y0102275D02*
X0249641Y0102275D01*
X0244909Y0099878D02*
X0225775Y0099878D01*
X0225279Y0098679D02*
X0245618Y0098679D01*
X0246871Y0097481D02*
X0224152Y0097481D01*
X0224455Y0096282D02*
X0245595Y0096282D01*
X0244646Y0095084D02*
X0225404Y0095084D01*
X0225901Y0093885D02*
X0244150Y0093885D01*
X0243888Y0092687D02*
X0226162Y0092687D01*
X0226162Y0091488D02*
X0243888Y0091488D01*
X0244105Y0090290D02*
X0225946Y0090290D01*
X0225449Y0089091D02*
X0244601Y0089091D01*
X0245486Y0087893D02*
X0224564Y0087893D01*
X0224043Y0086694D02*
X0246007Y0086694D01*
X0244817Y0085496D02*
X0225234Y0085496D01*
X0225730Y0084297D02*
X0244320Y0084297D01*
X0243290Y0083099D02*
X0226162Y0083099D01*
X0226162Y0081900D02*
X0242092Y0081900D01*
X0240893Y0080702D02*
X0226116Y0080702D01*
X0225620Y0079503D02*
X0239695Y0079503D01*
X0238496Y0078305D02*
X0224976Y0078305D01*
X0223777Y0077106D02*
X0237298Y0077106D01*
X0236099Y0075908D02*
X0224830Y0075908D01*
X0225559Y0074709D02*
X0234901Y0074709D01*
X0233702Y0073511D02*
X0226056Y0073511D01*
X0226162Y0072312D02*
X0232504Y0072312D01*
X0231305Y0071114D02*
X0226162Y0071114D01*
X0225791Y0069915D02*
X0230107Y0069915D01*
X0228908Y0068717D02*
X0225294Y0068717D01*
X0224189Y0067518D02*
X0227710Y0067518D01*
X0226511Y0066320D02*
X0223425Y0066320D01*
X0223425Y0065121D02*
X0225313Y0065121D01*
X0224114Y0063923D02*
X0223425Y0063923D01*
X0211923Y0056732D02*
X0162655Y0056732D01*
X0163853Y0055533D02*
X0210725Y0055533D01*
X0209555Y0044746D02*
X0217894Y0044746D01*
X0218788Y0043548D02*
X0208356Y0043548D01*
X0207158Y0042349D02*
X0220199Y0042349D01*
X0226426Y0042349D02*
X0230199Y0042349D01*
X0228788Y0043548D02*
X0227837Y0043548D01*
X0236426Y0042349D02*
X0250935Y0042349D01*
X0250935Y0041151D02*
X0205959Y0041151D01*
X0204761Y0039952D02*
X0250935Y0039952D01*
X0250935Y0038754D02*
X0203562Y0038754D01*
X0202364Y0037555D02*
X0205276Y0037555D01*
X0206285Y0037973D02*
X0204029Y0037039D01*
X0202303Y0035313D01*
X0201369Y0033057D01*
X0201369Y0030615D01*
X0202303Y0028360D01*
X0204029Y0026634D01*
X0206285Y0025699D01*
X0208726Y0025699D01*
X0210982Y0026634D01*
X0212708Y0028360D01*
X0213643Y0030615D01*
X0213643Y0033057D01*
X0212708Y0035313D01*
X0210982Y0037039D01*
X0208726Y0037973D01*
X0206285Y0037973D01*
X0209735Y0037555D02*
X0250935Y0037555D01*
X0250935Y0037460D02*
X0252224Y0036172D01*
X0252256Y0036172D01*
X0251870Y0035785D01*
X0250935Y0033529D01*
X0250935Y0031088D01*
X0251870Y0028832D01*
X0253596Y0027106D01*
X0255852Y0026172D01*
X0258293Y0026172D01*
X0260549Y0027106D01*
X0262275Y0028832D01*
X0263209Y0031088D01*
X0263209Y0033529D01*
X0262275Y0035785D01*
X0261888Y0036172D01*
X0261921Y0036172D01*
X0263209Y0037460D01*
X0263209Y0047157D01*
X0261921Y0048446D01*
X0252224Y0048446D01*
X0250935Y0047157D01*
X0250935Y0037460D01*
X0252039Y0036357D02*
X0240704Y0036357D01*
X0240408Y0036572D02*
X0239631Y0036968D01*
X0238802Y0037237D01*
X0237941Y0037373D01*
X0237890Y0037373D01*
X0237890Y0032221D01*
X0237121Y0032221D01*
X0237121Y0037373D01*
X0237070Y0037373D01*
X0236209Y0037237D01*
X0235380Y0036968D01*
X0234603Y0036572D01*
X0233898Y0036060D01*
X0233282Y0035443D01*
X0232770Y0034738D01*
X0232374Y0033962D01*
X0232105Y0033133D01*
X0231969Y0032272D01*
X0231969Y0032220D01*
X0237121Y0032220D01*
X0237121Y0031452D01*
X0231969Y0031452D01*
X0231969Y0031400D01*
X0232105Y0030540D01*
X0232374Y0029711D01*
X0232770Y0028934D01*
X0233282Y0028229D01*
X0233898Y0027613D01*
X0234603Y0027101D01*
X0235380Y0026705D01*
X0236209Y0026436D01*
X0237070Y0026299D01*
X0237121Y0026299D01*
X0237121Y0031452D01*
X0237890Y0031452D01*
X0237890Y0032220D01*
X0243043Y0032220D01*
X0243043Y0032272D01*
X0242906Y0033133D01*
X0242637Y0033962D01*
X0242241Y0034738D01*
X0241729Y0035443D01*
X0241113Y0036060D01*
X0240408Y0036572D01*
X0241936Y0035158D02*
X0251610Y0035158D01*
X0251114Y0033960D02*
X0242637Y0033960D01*
X0242965Y0032761D02*
X0250935Y0032761D01*
X0250935Y0031563D02*
X0237890Y0031563D01*
X0237890Y0031452D02*
X0243043Y0031452D01*
X0243043Y0031400D01*
X0242906Y0030540D01*
X0242637Y0029711D01*
X0242241Y0028934D01*
X0241729Y0028229D01*
X0241113Y0027613D01*
X0240408Y0027101D01*
X0239631Y0026705D01*
X0238802Y0026436D01*
X0237941Y0026299D01*
X0237890Y0026299D01*
X0237890Y0031452D01*
X0237121Y0031563D02*
X0213643Y0031563D01*
X0213643Y0032761D02*
X0232046Y0032761D01*
X0232374Y0033960D02*
X0213269Y0033960D01*
X0212772Y0035158D02*
X0233075Y0035158D01*
X0234307Y0036357D02*
X0211664Y0036357D01*
X0203347Y0036357D02*
X0201165Y0036357D01*
X0202239Y0035158D02*
X0199967Y0035158D01*
X0198768Y0033960D02*
X0201742Y0033960D01*
X0201369Y0032761D02*
X0197570Y0032761D01*
X0197500Y0031563D02*
X0201369Y0031563D01*
X0201473Y0030364D02*
X0197500Y0030364D01*
X0197500Y0029166D02*
X0201969Y0029166D01*
X0202695Y0027967D02*
X0197500Y0027967D01*
X0197500Y0026769D02*
X0203894Y0026769D01*
X0204856Y0023653D02*
X0203130Y0021927D01*
X0202195Y0019671D01*
X0202195Y0017230D01*
X0203130Y0014974D01*
X0204856Y0013248D01*
X0207112Y0012313D01*
X0209553Y0012313D01*
X0211809Y0013248D01*
X0213535Y0014974D01*
X0214469Y0017230D01*
X0214469Y0019671D01*
X0213535Y0021927D01*
X0211809Y0023653D01*
X0209553Y0024587D01*
X0207112Y0024587D01*
X0204856Y0023653D01*
X0204376Y0023173D02*
X0197396Y0023173D01*
X0197500Y0024372D02*
X0206591Y0024372D01*
X0210074Y0024372D02*
X0236591Y0024372D01*
X0237112Y0024587D02*
X0234856Y0023653D01*
X0233130Y0021927D01*
X0232195Y0019671D01*
X0232195Y0017230D01*
X0233130Y0014974D01*
X0234856Y0013248D01*
X0237112Y0012313D01*
X0239553Y0012313D01*
X0241809Y0013248D01*
X0243535Y0014974D01*
X0244469Y0017230D01*
X0244469Y0019671D01*
X0243535Y0021927D01*
X0241809Y0023653D01*
X0239553Y0024587D01*
X0237112Y0024587D01*
X0240074Y0024372D02*
X0279094Y0024372D01*
X0279710Y0024627D02*
X0277454Y0023692D01*
X0275728Y0021966D01*
X0274794Y0019710D01*
X0274794Y0017269D01*
X0275728Y0015013D01*
X0277454Y0013287D01*
X0279710Y0012353D01*
X0282151Y0012353D01*
X0284407Y0013287D01*
X0286133Y0015013D01*
X0287068Y0017269D01*
X0287068Y0019710D01*
X0286133Y0021966D01*
X0284407Y0023692D01*
X0282151Y0024627D01*
X0279710Y0024627D01*
X0282767Y0024372D02*
X0292342Y0024372D01*
X0291824Y0024586D02*
X0294080Y0023652D01*
X0296522Y0023652D01*
X0298777Y0024586D01*
X0299754Y0025563D01*
X0299754Y0025019D01*
X0301043Y0023731D01*
X0310740Y0023731D01*
X0312028Y0025019D01*
X0312028Y0034716D01*
X0310740Y0036005D01*
X0301043Y0036005D01*
X0299754Y0034716D01*
X0299754Y0034014D01*
X0298777Y0034992D01*
X0296522Y0035926D01*
X0294080Y0035926D01*
X0291824Y0034992D01*
X0290098Y0033265D01*
X0289164Y0031010D01*
X0289164Y0028568D01*
X0290098Y0026313D01*
X0291824Y0024586D01*
X0290840Y0025570D02*
X0197500Y0025570D01*
X0196783Y0021975D02*
X0203178Y0021975D01*
X0202653Y0020776D02*
X0195584Y0020776D01*
X0194386Y0019578D02*
X0202195Y0019578D01*
X0202195Y0018379D02*
X0193187Y0018379D01*
X0191989Y0017181D02*
X0202216Y0017181D01*
X0202712Y0015982D02*
X0190457Y0015982D01*
X0182048Y0014784D02*
X0203320Y0014784D01*
X0204519Y0013585D02*
X0182048Y0013585D01*
X0182048Y0012387D02*
X0206935Y0012387D01*
X0209730Y0012387D02*
X0236935Y0012387D01*
X0234519Y0013585D02*
X0212146Y0013585D01*
X0213345Y0014784D02*
X0233320Y0014784D01*
X0232712Y0015982D02*
X0213953Y0015982D01*
X0214449Y0017181D02*
X0232216Y0017181D01*
X0232195Y0018379D02*
X0214469Y0018379D01*
X0214469Y0019578D02*
X0232195Y0019578D01*
X0232653Y0020776D02*
X0214012Y0020776D01*
X0213487Y0021975D02*
X0233178Y0021975D01*
X0234376Y0023173D02*
X0212288Y0023173D01*
X0211117Y0026769D02*
X0235255Y0026769D01*
X0237121Y0026769D02*
X0237890Y0026769D01*
X0237890Y0027967D02*
X0237121Y0027967D01*
X0237121Y0029166D02*
X0237890Y0029166D01*
X0237890Y0030364D02*
X0237121Y0030364D01*
X0233544Y0027967D02*
X0212316Y0027967D01*
X0213042Y0029166D02*
X0232652Y0029166D01*
X0232162Y0030364D02*
X0213538Y0030364D01*
X0191549Y0036357D02*
X0171651Y0036357D01*
X0173534Y0035158D02*
X0178052Y0035158D01*
X0176423Y0033960D02*
X0175163Y0033960D01*
X0183534Y0035158D02*
X0190858Y0035158D01*
X0190700Y0033960D02*
X0185163Y0033960D01*
X0186147Y0032761D02*
X0190700Y0032761D01*
X0190700Y0031563D02*
X0186644Y0031563D01*
X0186930Y0030364D02*
X0190700Y0030364D01*
X0190700Y0029166D02*
X0186930Y0029166D01*
X0186738Y0027967D02*
X0190700Y0027967D01*
X0190700Y0026769D02*
X0186242Y0026769D01*
X0185391Y0025570D02*
X0190700Y0025570D01*
X0189563Y0024372D02*
X0184084Y0024372D01*
X0188365Y0023173D02*
X0163750Y0023173D01*
X0164084Y0024372D02*
X0167502Y0024372D01*
X0166195Y0025570D02*
X0165391Y0025570D01*
X0174084Y0024372D02*
X0177502Y0024372D01*
X0176195Y0025570D02*
X0175391Y0025570D01*
X0158763Y0018379D02*
X0129040Y0018379D01*
X0129144Y0018304D02*
X0128439Y0018816D01*
X0127662Y0019212D01*
X0126834Y0019481D01*
X0125973Y0019617D01*
X0125921Y0019617D01*
X0125921Y0014465D01*
X0131074Y0014465D01*
X0131074Y0014516D01*
X0130938Y0015377D01*
X0130668Y0016206D01*
X0130273Y0016982D01*
X0129760Y0017687D01*
X0129144Y0018304D01*
X0130129Y0017181D02*
X0149069Y0017181D01*
X0148337Y0015982D02*
X0130741Y0015982D01*
X0131032Y0014784D02*
X0148337Y0014784D01*
X0148337Y0013585D02*
X0131065Y0013585D01*
X0130809Y0012387D02*
X0148337Y0012387D01*
X0148337Y0011188D02*
X0130278Y0011188D01*
X0129277Y0009990D02*
X0148337Y0009990D01*
X0159879Y0017181D02*
X0159961Y0017181D01*
X0157564Y0019578D02*
X0126223Y0019578D01*
X0125921Y0019578D02*
X0125153Y0019578D01*
X0124851Y0019578D02*
X0049028Y0019578D01*
X0045388Y0017181D02*
X0020942Y0017181D01*
X0021674Y0015982D02*
X0027878Y0015982D01*
X0027924Y0016155D02*
X0027815Y0015748D01*
X0027815Y0011984D01*
X0032968Y0011984D01*
X0032968Y0011216D01*
X0033736Y0011216D01*
X0033736Y0011984D01*
X0038889Y0011984D01*
X0038889Y0015748D01*
X0038780Y0016155D01*
X0038569Y0016519D01*
X0038271Y0016817D01*
X0037907Y0017028D01*
X0037500Y0017137D01*
X0033736Y0017137D01*
X0033736Y0011984D01*
X0032968Y0011984D01*
X0032968Y0017137D01*
X0029204Y0017137D01*
X0028797Y0017028D01*
X0028433Y0016817D01*
X0028135Y0016519D01*
X0027924Y0016155D01*
X0027815Y0014784D02*
X0021674Y0014784D01*
X0021674Y0013585D02*
X0027815Y0013585D01*
X0027815Y0012387D02*
X0021674Y0012387D01*
X0021674Y0011188D02*
X0027815Y0011188D01*
X0027815Y0011216D02*
X0027815Y0007452D01*
X0027924Y0007045D01*
X0028135Y0006681D01*
X0028433Y0006383D01*
X0028797Y0006172D01*
X0029204Y0006063D01*
X0032968Y0006063D01*
X0032968Y0011216D01*
X0027815Y0011216D01*
X0027815Y0009990D02*
X0021674Y0009990D01*
X0021674Y0008791D02*
X0027815Y0008791D01*
X0027815Y0007593D02*
X0021674Y0007593D01*
X0021316Y0006394D02*
X0028421Y0006394D01*
X0032968Y0006394D02*
X0033736Y0006394D01*
X0033736Y0006063D02*
X0037500Y0006063D01*
X0037907Y0006172D01*
X0038271Y0006383D01*
X0038569Y0006681D01*
X0038780Y0007045D01*
X0038889Y0007452D01*
X0038889Y0011216D01*
X0033736Y0011216D01*
X0033736Y0006063D01*
X0033736Y0007593D02*
X0032968Y0007593D01*
X0032968Y0008791D02*
X0033736Y0008791D01*
X0033736Y0009990D02*
X0032968Y0009990D01*
X0032968Y0011188D02*
X0033736Y0011188D01*
X0033736Y0012387D02*
X0032968Y0012387D01*
X0032968Y0013585D02*
X0033736Y0013585D01*
X0033736Y0014784D02*
X0032968Y0014784D01*
X0032968Y0015982D02*
X0033736Y0015982D01*
X0038826Y0015982D02*
X0044656Y0015982D01*
X0044656Y0014784D02*
X0038889Y0014784D01*
X0038889Y0013585D02*
X0044656Y0013585D01*
X0044656Y0012387D02*
X0038889Y0012387D01*
X0038889Y0011188D02*
X0044656Y0011188D01*
X0044656Y0009990D02*
X0038889Y0009990D01*
X0038889Y0008791D02*
X0044656Y0008791D01*
X0044656Y0007593D02*
X0038889Y0007593D01*
X0038283Y0006394D02*
X0045014Y0006394D01*
X0012137Y0018379D02*
X0003800Y0018379D01*
X0003800Y0017181D02*
X0010132Y0017181D01*
X0009400Y0015982D02*
X0003800Y0015982D01*
X0003800Y0014784D02*
X0009400Y0014784D01*
X0009400Y0013585D02*
X0003800Y0013585D01*
X0003800Y0012387D02*
X0009400Y0012387D01*
X0009400Y0011188D02*
X0003800Y0011188D01*
X0003800Y0009990D02*
X0009400Y0009990D01*
X0009400Y0008791D02*
X0003800Y0008791D01*
X0003800Y0007593D02*
X0009400Y0007593D01*
X0009758Y0006394D02*
X0003800Y0006394D01*
X0003800Y0005196D02*
X0294303Y0005196D01*
X0293731Y0005767D02*
X0295019Y0004479D01*
X0304716Y0004479D01*
X0306005Y0005767D01*
X0306005Y0015464D01*
X0304716Y0016753D01*
X0295019Y0016753D01*
X0293731Y0015464D01*
X0293731Y0005767D01*
X0293731Y0006394D02*
X0181690Y0006394D01*
X0182048Y0007593D02*
X0293731Y0007593D01*
X0293731Y0008791D02*
X0182048Y0008791D01*
X0182048Y0009990D02*
X0293731Y0009990D01*
X0293731Y0011188D02*
X0182048Y0011188D01*
X0125921Y0011188D02*
X0125153Y0011188D01*
X0125153Y0009990D02*
X0125921Y0009990D01*
X0125921Y0012387D02*
X0125153Y0012387D01*
X0125153Y0013585D02*
X0125921Y0013585D01*
X0125921Y0014784D02*
X0125153Y0014784D01*
X0125153Y0015982D02*
X0125921Y0015982D01*
X0125921Y0017181D02*
X0125153Y0017181D01*
X0125153Y0018379D02*
X0125921Y0018379D01*
X0148235Y0041151D02*
X0160538Y0041151D01*
X0158156Y0042349D02*
X0152337Y0042349D01*
X0152308Y0042335D02*
X0153085Y0042730D01*
X0153790Y0043243D01*
X0154406Y0043859D01*
X0154918Y0044564D01*
X0155314Y0045341D01*
X0155583Y0046170D01*
X0155720Y0047030D01*
X0155720Y0047082D01*
X0150567Y0047082D01*
X0150567Y0047850D01*
X0155720Y0047850D01*
X0155720Y0047902D01*
X0155583Y0048763D01*
X0155314Y0049592D01*
X0154918Y0050368D01*
X0154406Y0051073D01*
X0153790Y0051690D01*
X0153085Y0052202D01*
X0152308Y0052597D01*
X0151479Y0052867D01*
X0150618Y0053003D01*
X0150567Y0053003D01*
X0150567Y0047850D01*
X0149798Y0047850D01*
X0149798Y0047082D01*
X0144646Y0047082D01*
X0144646Y0047030D01*
X0144782Y0046170D01*
X0145051Y0045341D01*
X0145447Y0044564D01*
X0145959Y0043859D01*
X0146576Y0043243D01*
X0147281Y0042730D01*
X0148057Y0042335D01*
X0148886Y0042065D01*
X0149747Y0041929D01*
X0149798Y0041929D01*
X0149798Y0047082D01*
X0150567Y0047082D01*
X0150567Y0041929D01*
X0150618Y0041929D01*
X0151479Y0042065D01*
X0152308Y0042335D01*
X0150567Y0042349D02*
X0149798Y0042349D01*
X0149798Y0043548D02*
X0150567Y0043548D01*
X0150567Y0044746D02*
X0149798Y0044746D01*
X0149798Y0045945D02*
X0150567Y0045945D01*
X0150567Y0047143D02*
X0155857Y0047143D01*
X0155867Y0045945D02*
X0155510Y0045945D01*
X0155011Y0044746D02*
X0156363Y0044746D01*
X0156957Y0043548D02*
X0154095Y0043548D01*
X0148029Y0042349D02*
X0147037Y0042349D01*
X0146270Y0043548D02*
X0145838Y0043548D01*
X0145354Y0044746D02*
X0144640Y0044746D01*
X0144855Y0045945D02*
X0144194Y0045945D01*
X0144194Y0047143D02*
X0149798Y0047143D01*
X0149798Y0047850D02*
X0144646Y0047850D01*
X0144646Y0047902D01*
X0144782Y0048763D01*
X0145051Y0049592D01*
X0145447Y0050368D01*
X0145959Y0051073D01*
X0146576Y0051690D01*
X0147281Y0052202D01*
X0148057Y0052597D01*
X0148886Y0052867D01*
X0149747Y0053003D01*
X0149798Y0053003D01*
X0149798Y0047850D01*
X0149798Y0048342D02*
X0150567Y0048342D01*
X0150567Y0049540D02*
X0149798Y0049540D01*
X0149798Y0050739D02*
X0150567Y0050739D01*
X0150567Y0051937D02*
X0149798Y0051937D01*
X0146917Y0051937D02*
X0141018Y0051937D01*
X0142518Y0050739D02*
X0145716Y0050739D01*
X0145035Y0049540D02*
X0143449Y0049540D01*
X0143945Y0048342D02*
X0144715Y0048342D01*
X0153449Y0051937D02*
X0157832Y0051937D01*
X0156863Y0050739D02*
X0154649Y0050739D01*
X0155331Y0049540D02*
X0156324Y0049540D01*
X0155857Y0048342D02*
X0155650Y0048342D01*
X0156634Y0053136D02*
X0124413Y0053136D01*
X0124094Y0051937D02*
X0135096Y0051937D01*
X0133595Y0050739D02*
X0124769Y0050739D01*
X0125612Y0054334D02*
X0155435Y0054334D01*
X0154237Y0055533D02*
X0126275Y0055533D01*
X0126772Y0056732D02*
X0153038Y0056732D01*
X0151840Y0057930D02*
X0126831Y0057930D01*
X0126831Y0059129D02*
X0150641Y0059129D01*
X0149443Y0060327D02*
X0126413Y0060327D01*
X0125917Y0061526D02*
X0148244Y0061526D01*
X0147046Y0062724D02*
X0124745Y0062724D01*
X0122665Y0063923D02*
X0145847Y0063923D01*
X0144649Y0065121D02*
X0109233Y0065121D01*
X0109233Y0066320D02*
X0143450Y0066320D01*
X0142252Y0067518D02*
X0108804Y0067518D01*
X0108308Y0068717D02*
X0141053Y0068717D01*
X0139854Y0069915D02*
X0107121Y0069915D01*
X0106654Y0071114D02*
X0135075Y0071114D01*
X0133587Y0072312D02*
X0122768Y0072312D01*
X0124788Y0073511D02*
X0132661Y0073511D01*
X0132165Y0074709D02*
X0125934Y0074709D01*
X0126431Y0075908D02*
X0131920Y0075908D01*
X0131920Y0077106D02*
X0126831Y0077106D01*
X0126831Y0078305D02*
X0132153Y0078305D01*
X0132649Y0079503D02*
X0126754Y0079503D01*
X0126258Y0080702D02*
X0132690Y0080702D01*
X0131491Y0081900D02*
X0125569Y0081900D01*
X0124371Y0083099D02*
X0130293Y0083099D01*
X0137513Y0085496D02*
X0148187Y0085496D01*
X0147171Y0084297D02*
X0138711Y0084297D01*
X0139910Y0083099D02*
X0146783Y0083099D01*
X0145938Y0081900D02*
X0141107Y0081900D01*
X0142555Y0080702D02*
X0144880Y0080702D01*
X0144384Y0079503D02*
X0143464Y0079503D01*
X0143961Y0078305D02*
X0144046Y0078305D01*
X0154428Y0081900D02*
X0158024Y0081900D01*
X0156826Y0080702D02*
X0155485Y0080702D01*
X0155982Y0079503D02*
X0156309Y0079503D01*
X0155407Y0083099D02*
X0160221Y0083099D01*
X0163767Y0083099D02*
X0165084Y0083099D01*
X0165963Y0081900D02*
X0185273Y0081900D01*
X0183115Y0083099D02*
X0172211Y0083099D01*
X0173409Y0084297D02*
X0181917Y0084297D01*
X0181416Y0085496D02*
X0174164Y0085496D01*
X0174660Y0086694D02*
X0180975Y0086694D01*
X0180975Y0087893D02*
X0174784Y0087893D01*
X0174784Y0089091D02*
X0180993Y0089091D01*
X0179795Y0090290D02*
X0174430Y0090290D01*
X0173934Y0091488D02*
X0178596Y0091488D01*
X0177398Y0092687D02*
X0172854Y0092687D01*
X0170993Y0093885D02*
X0176199Y0093885D01*
X0175001Y0095084D02*
X0144780Y0095084D01*
X0144780Y0094995D02*
X0144780Y0095764D01*
X0149932Y0095764D01*
X0149932Y0095815D01*
X0149796Y0096676D01*
X0149527Y0097505D01*
X0149131Y0098282D01*
X0148619Y0098987D01*
X0148002Y0099603D01*
X0147297Y0100115D01*
X0146521Y0100511D01*
X0145692Y0100780D01*
X0144831Y0100917D01*
X0144780Y0100917D01*
X0144780Y0095764D01*
X0144011Y0095764D01*
X0144011Y0100917D01*
X0143959Y0100917D01*
X0143099Y0100780D01*
X0142270Y0100511D01*
X0141493Y0100115D01*
X0140788Y0099603D01*
X0140172Y0098987D01*
X0139660Y0098282D01*
X0139264Y0097505D01*
X0138995Y0096676D01*
X0138858Y0095815D01*
X0138858Y0095764D01*
X0144011Y0095764D01*
X0144011Y0094995D01*
X0144780Y0094995D01*
X0149932Y0094995D01*
X0149932Y0094944D01*
X0149796Y0094083D01*
X0149527Y0093254D01*
X0149131Y0092477D01*
X0148619Y0091772D01*
X0148002Y0091156D01*
X0147297Y0090644D01*
X0146521Y0090248D01*
X0145692Y0089979D01*
X0144831Y0089843D01*
X0144780Y0089843D01*
X0144780Y0094995D01*
X0144011Y0094995D02*
X0144011Y0089843D01*
X0143959Y0089843D01*
X0143099Y0089979D01*
X0142270Y0090248D01*
X0141493Y0090644D01*
X0140788Y0091156D01*
X0140172Y0091772D01*
X0139660Y0092477D01*
X0139264Y0093254D01*
X0138995Y0094083D01*
X0138858Y0094944D01*
X0138858Y0094995D01*
X0144011Y0094995D01*
X0144011Y0095084D02*
X0130532Y0095084D01*
X0130532Y0096282D02*
X0138932Y0096282D01*
X0139256Y0097481D02*
X0131305Y0097481D01*
X0132503Y0098679D02*
X0139949Y0098679D01*
X0141167Y0099878D02*
X0133702Y0099878D01*
X0134900Y0101076D02*
X0149815Y0101076D01*
X0151014Y0099878D02*
X0147624Y0099878D01*
X0148842Y0098679D02*
X0152212Y0098679D01*
X0153411Y0097481D02*
X0149534Y0097481D01*
X0149858Y0096282D02*
X0154609Y0096282D01*
X0149732Y0093885D02*
X0166302Y0093885D01*
X0164441Y0092687D02*
X0149238Y0092687D01*
X0148335Y0091488D02*
X0163361Y0091488D01*
X0152982Y0090290D02*
X0146602Y0090290D01*
X0144780Y0090290D02*
X0144011Y0090290D01*
X0144011Y0091488D02*
X0144780Y0091488D01*
X0144780Y0092687D02*
X0144011Y0092687D01*
X0144011Y0093885D02*
X0144780Y0093885D01*
X0144780Y0096282D02*
X0144011Y0096282D01*
X0144011Y0097481D02*
X0144780Y0097481D01*
X0144780Y0098679D02*
X0144011Y0098679D01*
X0144011Y0099878D02*
X0144780Y0099878D01*
X0147418Y0103473D02*
X0137298Y0103473D01*
X0138496Y0104672D02*
X0146220Y0104672D01*
X0145461Y0105870D02*
X0139695Y0105870D01*
X0140893Y0107069D02*
X0144263Y0107069D01*
X0143541Y0108268D02*
X0142092Y0108268D01*
X0142905Y0109466D02*
X0143044Y0109466D01*
X0136070Y0111863D02*
X0125217Y0111863D01*
X0125217Y0110665D02*
X0134872Y0110665D01*
X0133673Y0109466D02*
X0125116Y0109466D01*
X0124620Y0108268D02*
X0132475Y0108268D01*
X0131276Y0107069D02*
X0123898Y0107069D01*
X0122699Y0105870D02*
X0130078Y0105870D01*
X0128879Y0104672D02*
X0108336Y0104672D01*
X0107138Y0105870D02*
X0115461Y0105870D01*
X0114263Y0107069D02*
X0107638Y0107069D01*
X0108614Y0108268D02*
X0113541Y0108268D01*
X0113044Y0109466D02*
X0109110Y0109466D01*
X0109391Y0110665D02*
X0112943Y0110665D01*
X0112943Y0111863D02*
X0109391Y0111863D01*
X0109193Y0113062D02*
X0113320Y0113062D01*
X0113817Y0114260D02*
X0108697Y0114260D01*
X0107838Y0115459D02*
X0114929Y0115459D01*
X0114235Y0116657D02*
X0106511Y0116657D01*
X0111838Y0119054D02*
X0058858Y0119054D01*
X0058858Y0117856D02*
X0113036Y0117856D01*
X0110639Y0120253D02*
X0102696Y0120253D01*
X0105254Y0121451D02*
X0109441Y0121451D01*
X0108242Y0122650D02*
X0106452Y0122650D01*
X0114263Y0126245D02*
X0132247Y0126245D01*
X0132744Y0125047D02*
X0115462Y0125047D01*
X0116660Y0123848D02*
X0133266Y0123848D01*
X0134464Y0122650D02*
X0117859Y0122650D01*
X0119057Y0121451D02*
X0136051Y0121451D01*
X0136350Y0120253D02*
X0120256Y0120253D01*
X0121454Y0119054D02*
X0136350Y0119054D01*
X0136350Y0117856D02*
X0122249Y0117856D01*
X0122480Y0116657D02*
X0136350Y0116657D01*
X0136350Y0115459D02*
X0123231Y0115459D01*
X0124344Y0114260D02*
X0136350Y0114260D01*
X0136350Y0113062D02*
X0124840Y0113062D01*
X0127681Y0103473D02*
X0109535Y0103473D01*
X0110733Y0102275D02*
X0126482Y0102275D01*
X0122112Y0101076D02*
X0111932Y0101076D01*
X0113130Y0099878D02*
X0120215Y0099878D01*
X0130419Y0093885D02*
X0139059Y0093885D01*
X0139553Y0092687D02*
X0129923Y0092687D01*
X0129183Y0091488D02*
X0140456Y0091488D01*
X0142188Y0090290D02*
X0127985Y0090290D01*
X0133917Y0089091D02*
X0151783Y0089091D01*
X0150584Y0087893D02*
X0135115Y0087893D01*
X0136314Y0086694D02*
X0149386Y0086694D01*
X0156606Y0084297D02*
X0163885Y0084297D01*
X0172307Y0080702D02*
X0196128Y0080702D01*
X0195935Y0081900D02*
X0188951Y0081900D01*
X0191109Y0083099D02*
X0195935Y0083099D01*
X0196221Y0084297D02*
X0192307Y0084297D01*
X0192808Y0085496D02*
X0196717Y0085496D01*
X0197700Y0086694D02*
X0193249Y0086694D01*
X0193249Y0087893D02*
X0199327Y0087893D01*
X0199450Y0089091D02*
X0193212Y0089091D01*
X0192715Y0090290D02*
X0199450Y0090290D01*
X0199450Y0091488D02*
X0192084Y0091488D01*
X0190885Y0092687D02*
X0199450Y0092687D01*
X0199450Y0093885D02*
X0188412Y0093885D01*
X0184617Y0095084D02*
X0199450Y0095084D01*
X0198359Y0096282D02*
X0183419Y0096282D01*
X0182220Y0097481D02*
X0197161Y0097481D01*
X0195962Y0098679D02*
X0181022Y0098679D01*
X0179823Y0099878D02*
X0194764Y0099878D01*
X0193565Y0101076D02*
X0178625Y0101076D01*
X0177013Y0102275D02*
X0184368Y0102275D01*
X0182740Y0103473D02*
X0172586Y0103473D01*
X0173784Y0104672D02*
X0181757Y0104672D01*
X0181261Y0105870D02*
X0174319Y0105870D01*
X0174784Y0107069D02*
X0180975Y0107069D01*
X0180975Y0108268D02*
X0174784Y0108268D01*
X0174771Y0109466D02*
X0181167Y0109466D01*
X0181664Y0110665D02*
X0174275Y0110665D01*
X0173677Y0111863D02*
X0182515Y0111863D01*
X0183823Y0113062D02*
X0172479Y0113062D01*
X0172047Y0114260D02*
X0188935Y0114260D01*
X0187736Y0115459D02*
X0172047Y0115459D01*
X0172047Y0116657D02*
X0186538Y0116657D01*
X0185339Y0117856D02*
X0172047Y0117856D01*
X0172047Y0119054D02*
X0184141Y0119054D01*
X0182942Y0120253D02*
X0171956Y0120253D01*
X0171360Y0121451D02*
X0176051Y0121451D01*
X0174464Y0122650D02*
X0170162Y0122650D01*
X0168963Y0123848D02*
X0173266Y0123848D01*
X0172744Y0125047D02*
X0167765Y0125047D01*
X0167252Y0126245D02*
X0172247Y0126245D01*
X0172050Y0127444D02*
X0167450Y0127444D01*
X0167450Y0128642D02*
X0172050Y0128642D01*
X0172073Y0129841D02*
X0167427Y0129841D01*
X0166930Y0131039D02*
X0172569Y0131039D01*
X0173066Y0132238D02*
X0166434Y0132238D01*
X0165456Y0133436D02*
X0174043Y0133436D01*
X0175241Y0134635D02*
X0164258Y0134635D01*
X0148514Y0141826D02*
X0003800Y0141826D01*
X0060993Y0116657D02*
X0073096Y0116657D01*
X0071898Y0115459D02*
X0061595Y0115459D01*
X0080340Y0116657D02*
X0087584Y0116657D01*
X0086386Y0115459D02*
X0081539Y0115459D01*
X0094671Y0116657D02*
X0099996Y0116657D01*
X0098669Y0115459D02*
X0095869Y0115459D01*
X0096636Y0114260D02*
X0097811Y0114260D01*
X0097314Y0113062D02*
X0097132Y0113062D01*
X0086901Y0107069D02*
X0080866Y0107069D01*
X0078923Y0105870D02*
X0087728Y0105870D01*
X0136099Y0102275D02*
X0148617Y0102275D01*
X0189856Y0102275D02*
X0192367Y0102275D01*
X0221373Y0109466D02*
X0244110Y0109466D01*
X0242912Y0110665D02*
X0222572Y0110665D01*
X0223287Y0111863D02*
X0242197Y0111863D01*
X0241700Y0113062D02*
X0223783Y0113062D01*
X0223879Y0114260D02*
X0241605Y0114260D01*
X0241605Y0115459D02*
X0223879Y0115459D01*
X0223496Y0116657D02*
X0241987Y0116657D01*
X0242483Y0117856D02*
X0223000Y0117856D01*
X0221880Y0119054D02*
X0243603Y0119054D01*
X0245561Y0120253D02*
X0219923Y0120253D01*
X0220600Y0121451D02*
X0232442Y0121451D01*
X0231078Y0122650D02*
X0221964Y0122650D01*
X0223096Y0123848D02*
X0229946Y0123848D01*
X0229450Y0125047D02*
X0223593Y0125047D01*
X0224089Y0126245D02*
X0228953Y0126245D01*
X0228821Y0127444D02*
X0224221Y0127444D01*
X0224221Y0128642D02*
X0228821Y0128642D01*
X0228910Y0129841D02*
X0224133Y0129841D01*
X0223637Y0131039D02*
X0229406Y0131039D01*
X0229902Y0132238D02*
X0223140Y0132238D01*
X0222070Y0133436D02*
X0230972Y0133436D01*
X0232186Y0134635D02*
X0221943Y0134635D01*
X0241964Y0122650D02*
X0251070Y0122650D01*
X0249946Y0123848D02*
X0243096Y0123848D01*
X0240600Y0121451D02*
X0249871Y0121451D01*
X0255892Y0117856D02*
X0266950Y0117856D01*
X0266950Y0119054D02*
X0257091Y0119054D01*
X0258289Y0120253D02*
X0266950Y0120253D01*
X0266950Y0121451D02*
X0260600Y0121451D01*
X0261964Y0122650D02*
X0266950Y0122650D01*
X0266950Y0123848D02*
X0263096Y0123848D01*
X0263593Y0125047D02*
X0266950Y0125047D01*
X0266950Y0126245D02*
X0264089Y0126245D01*
X0264221Y0127444D02*
X0266950Y0127444D01*
X0266950Y0128642D02*
X0264221Y0128642D01*
X0264133Y0129841D02*
X0266950Y0129841D01*
X0266950Y0131039D02*
X0263637Y0131039D01*
X0263140Y0132238D02*
X0266950Y0132238D01*
X0266205Y0133436D02*
X0262070Y0133436D01*
X0260856Y0134635D02*
X0265007Y0134635D01*
X0271028Y0138230D02*
X0314400Y0138230D01*
X0314400Y0137032D02*
X0272227Y0137032D01*
X0272276Y0136982D02*
X0272276Y0136982D01*
X0273312Y0135833D02*
X0314400Y0135833D01*
X0314400Y0134635D02*
X0273750Y0134635D01*
X0273750Y0133436D02*
X0286555Y0133436D01*
X0285784Y0133117D02*
X0289353Y0134595D01*
X0293217Y0134595D01*
X0296786Y0133117D01*
X0299518Y0130385D01*
X0300997Y0126815D01*
X0300997Y0122952D01*
X0299518Y0119382D01*
X0296786Y0116650D01*
X0294332Y0115633D01*
X0296786Y0114617D01*
X0299518Y0111885D01*
X0300997Y0108315D01*
X0300997Y0104452D01*
X0299518Y0100882D01*
X0296786Y0098150D01*
X0294332Y0097133D01*
X0296786Y0096117D01*
X0299518Y0093385D01*
X0300997Y0089815D01*
X0300997Y0085952D01*
X0299518Y0082382D01*
X0296786Y0079650D01*
X0293217Y0078172D01*
X0289353Y0078172D01*
X0285784Y0079650D01*
X0283052Y0082382D01*
X0281573Y0085952D01*
X0281573Y0089815D01*
X0283052Y0093385D01*
X0285784Y0096117D01*
X0288238Y0097133D01*
X0285784Y0098150D01*
X0283052Y0100882D01*
X0281573Y0104452D01*
X0281573Y0108315D01*
X0283052Y0111885D01*
X0285784Y0114617D01*
X0288238Y0115633D01*
X0285784Y0116650D01*
X0283052Y0119382D01*
X0281573Y0122952D01*
X0281573Y0126815D01*
X0283052Y0130385D01*
X0285784Y0133117D01*
X0284905Y0132238D02*
X0273750Y0132238D01*
X0273750Y0131039D02*
X0283706Y0131039D01*
X0282826Y0129841D02*
X0273750Y0129841D01*
X0273750Y0128642D02*
X0282330Y0128642D01*
X0281834Y0127444D02*
X0273750Y0127444D01*
X0273750Y0126245D02*
X0281573Y0126245D01*
X0281573Y0125047D02*
X0273750Y0125047D01*
X0273750Y0123848D02*
X0281573Y0123848D01*
X0281698Y0122650D02*
X0273750Y0122650D01*
X0273750Y0121451D02*
X0282195Y0121451D01*
X0282691Y0120253D02*
X0273750Y0120253D01*
X0273750Y0119054D02*
X0283380Y0119054D01*
X0284578Y0117856D02*
X0273750Y0117856D01*
X0273750Y0116657D02*
X0285777Y0116657D01*
X0287816Y0115459D02*
X0273750Y0115459D01*
X0273750Y0114260D02*
X0285427Y0114260D01*
X0284229Y0113062D02*
X0273750Y0113062D01*
X0273750Y0111863D02*
X0283043Y0111863D01*
X0282546Y0110665D02*
X0273750Y0110665D01*
X0273750Y0109466D02*
X0282050Y0109466D01*
X0281573Y0108268D02*
X0274596Y0108268D01*
X0275785Y0107069D02*
X0281573Y0107069D01*
X0281573Y0105870D02*
X0276282Y0105870D01*
X0276713Y0104672D02*
X0281573Y0104672D01*
X0281978Y0103473D02*
X0276713Y0103473D01*
X0276667Y0102275D02*
X0282475Y0102275D01*
X0282971Y0101076D02*
X0276170Y0101076D01*
X0275525Y0099878D02*
X0284056Y0099878D01*
X0285255Y0098679D02*
X0274327Y0098679D01*
X0271821Y0097481D02*
X0287400Y0097481D01*
X0286184Y0096282D02*
X0262500Y0096282D01*
X0262500Y0095084D02*
X0284751Y0095084D01*
X0283552Y0093885D02*
X0262500Y0093885D01*
X0262500Y0092687D02*
X0282763Y0092687D01*
X0282266Y0091488D02*
X0262500Y0091488D01*
X0262500Y0090290D02*
X0281770Y0090290D01*
X0281573Y0089091D02*
X0262500Y0089091D01*
X0262500Y0087893D02*
X0281573Y0087893D01*
X0281573Y0086694D02*
X0262500Y0086694D01*
X0262500Y0085496D02*
X0281762Y0085496D01*
X0282258Y0084297D02*
X0262500Y0084297D01*
X0262500Y0083099D02*
X0282755Y0083099D01*
X0283534Y0081900D02*
X0262500Y0081900D01*
X0262500Y0080702D02*
X0284732Y0080702D01*
X0286138Y0079503D02*
X0272380Y0079503D01*
X0274559Y0078305D02*
X0289032Y0078305D01*
X0293538Y0078305D02*
X0314400Y0078305D01*
X0314400Y0079503D02*
X0296432Y0079503D01*
X0297838Y0080702D02*
X0314400Y0080702D01*
X0314400Y0081900D02*
X0299036Y0081900D01*
X0299815Y0083099D02*
X0314400Y0083099D01*
X0314400Y0084297D02*
X0300312Y0084297D01*
X0300808Y0085496D02*
X0314400Y0085496D01*
X0314400Y0086694D02*
X0300997Y0086694D01*
X0300997Y0087893D02*
X0314400Y0087893D01*
X0314400Y0089091D02*
X0300997Y0089091D01*
X0300800Y0090290D02*
X0314400Y0090290D01*
X0314400Y0091488D02*
X0300304Y0091488D01*
X0299807Y0092687D02*
X0314400Y0092687D01*
X0314400Y0093885D02*
X0299018Y0093885D01*
X0297819Y0095084D02*
X0314400Y0095084D01*
X0314400Y0096282D02*
X0296386Y0096282D01*
X0295171Y0097481D02*
X0314400Y0097481D01*
X0314400Y0098679D02*
X0297316Y0098679D01*
X0298514Y0099878D02*
X0314400Y0099878D01*
X0314400Y0101076D02*
X0299599Y0101076D01*
X0300095Y0102275D02*
X0314400Y0102275D01*
X0314400Y0103473D02*
X0300592Y0103473D01*
X0300997Y0104672D02*
X0314400Y0104672D01*
X0314400Y0105870D02*
X0300997Y0105870D01*
X0300997Y0107069D02*
X0314400Y0107069D01*
X0314400Y0108268D02*
X0300997Y0108268D01*
X0300520Y0109466D02*
X0314400Y0109466D01*
X0314400Y0110665D02*
X0300024Y0110665D01*
X0299527Y0111863D02*
X0314400Y0111863D01*
X0314400Y0113062D02*
X0298342Y0113062D01*
X0297143Y0114260D02*
X0314400Y0114260D01*
X0314400Y0115459D02*
X0294754Y0115459D01*
X0296793Y0116657D02*
X0314400Y0116657D01*
X0314400Y0117856D02*
X0297992Y0117856D01*
X0299190Y0119054D02*
X0314400Y0119054D01*
X0314400Y0120253D02*
X0299879Y0120253D01*
X0300375Y0121451D02*
X0314400Y0121451D01*
X0314400Y0122650D02*
X0300872Y0122650D01*
X0300997Y0123848D02*
X0314400Y0123848D01*
X0314400Y0125047D02*
X0300997Y0125047D01*
X0300997Y0126245D02*
X0314400Y0126245D01*
X0314400Y0127444D02*
X0300737Y0127444D01*
X0300240Y0128642D02*
X0314400Y0128642D01*
X0314400Y0129841D02*
X0299744Y0129841D01*
X0298864Y0131039D02*
X0314400Y0131039D01*
X0314400Y0132238D02*
X0297665Y0132238D01*
X0296015Y0133436D02*
X0314400Y0133436D01*
X0314400Y0139429D02*
X0269830Y0139429D01*
X0268631Y0140627D02*
X0314400Y0140627D01*
X0314400Y0141826D02*
X0267432Y0141826D01*
X0266950Y0116657D02*
X0256351Y0116657D01*
X0257550Y0115459D02*
X0266950Y0115459D01*
X0266950Y0114260D02*
X0258748Y0114260D01*
X0259947Y0113062D02*
X0266950Y0113062D01*
X0266950Y0111863D02*
X0261145Y0111863D01*
X0262132Y0110665D02*
X0266950Y0110665D01*
X0266950Y0109466D02*
X0262500Y0109466D01*
X0262500Y0108268D02*
X0266557Y0108268D01*
X0265367Y0107069D02*
X0262500Y0107069D01*
X0262500Y0105870D02*
X0264871Y0105870D01*
X0264439Y0104672D02*
X0262500Y0104672D01*
X0262500Y0103473D02*
X0264439Y0103473D01*
X0264486Y0102275D02*
X0262500Y0102275D01*
X0262500Y0101076D02*
X0264982Y0101076D01*
X0265627Y0099878D02*
X0262500Y0099878D01*
X0262500Y0098679D02*
X0266826Y0098679D01*
X0269331Y0097481D02*
X0262500Y0097481D01*
X0255700Y0097481D02*
X0253180Y0097481D01*
X0254433Y0098679D02*
X0255700Y0098679D01*
X0255700Y0099878D02*
X0255141Y0099878D01*
X0255480Y0101076D02*
X0255700Y0101076D01*
X0255700Y0096282D02*
X0254455Y0096282D01*
X0255404Y0095084D02*
X0255700Y0095084D01*
X0262500Y0079503D02*
X0268772Y0079503D01*
X0266594Y0078305D02*
X0262500Y0078305D01*
X0262500Y0077106D02*
X0265396Y0077106D01*
X0264886Y0075908D02*
X0262500Y0075908D01*
X0262500Y0074709D02*
X0264439Y0074709D01*
X0264439Y0073511D02*
X0262500Y0073511D01*
X0263196Y0072312D02*
X0264470Y0072312D01*
X0264395Y0071114D02*
X0264967Y0071114D01*
X0267990Y0067518D02*
X0269242Y0067518D01*
X0269189Y0066320D02*
X0314400Y0066320D01*
X0314400Y0067518D02*
X0271911Y0067518D01*
X0274364Y0068717D02*
X0314400Y0068717D01*
X0314400Y0069915D02*
X0275563Y0069915D01*
X0276186Y0071114D02*
X0314400Y0071114D01*
X0314400Y0072312D02*
X0276682Y0072312D01*
X0276713Y0073511D02*
X0314400Y0073511D01*
X0314400Y0074709D02*
X0276713Y0074709D01*
X0276266Y0075908D02*
X0314400Y0075908D01*
X0314400Y0077106D02*
X0275757Y0077106D01*
X0258374Y0067518D02*
X0256162Y0067518D01*
X0255297Y0066320D02*
X0259572Y0066320D01*
X0260771Y0065121D02*
X0253750Y0065121D01*
X0253750Y0063923D02*
X0261969Y0063923D01*
X0263168Y0062724D02*
X0253750Y0062724D01*
X0253750Y0061526D02*
X0262020Y0061526D01*
X0260836Y0060327D02*
X0253503Y0060327D01*
X0252687Y0059129D02*
X0260339Y0059129D01*
X0259912Y0057930D02*
X0251488Y0057930D01*
X0250290Y0056732D02*
X0259912Y0056732D01*
X0259962Y0055533D02*
X0249091Y0055533D01*
X0247893Y0054334D02*
X0260459Y0054334D01*
X0261109Y0053136D02*
X0246694Y0053136D01*
X0245496Y0051937D02*
X0262308Y0051937D01*
X0264827Y0050739D02*
X0244297Y0050739D01*
X0243099Y0049540D02*
X0314400Y0049540D01*
X0314400Y0048342D02*
X0286247Y0048342D01*
X0285616Y0048603D02*
X0287872Y0047669D01*
X0289598Y0045942D01*
X0290532Y0043687D01*
X0290532Y0041245D01*
X0289598Y0038990D01*
X0287872Y0037263D01*
X0285616Y0036329D01*
X0283175Y0036329D01*
X0280919Y0037263D01*
X0280532Y0037650D01*
X0280532Y0037618D01*
X0279244Y0036329D01*
X0269547Y0036329D01*
X0268258Y0037618D01*
X0268258Y0047314D01*
X0269547Y0048603D01*
X0279244Y0048603D01*
X0280532Y0047314D01*
X0280532Y0047282D01*
X0280919Y0047669D01*
X0283175Y0048603D01*
X0285616Y0048603D01*
X0282544Y0048342D02*
X0279505Y0048342D01*
X0280897Y0050739D02*
X0314400Y0050739D01*
X0314400Y0051937D02*
X0282096Y0051937D01*
X0282186Y0053136D02*
X0314400Y0053136D01*
X0314400Y0054334D02*
X0308570Y0054334D01*
X0309368Y0054665D02*
X0311094Y0056391D01*
X0312028Y0058647D01*
X0312028Y0061088D01*
X0311094Y0063344D01*
X0309368Y0065070D01*
X0307112Y0066005D01*
X0304671Y0066005D01*
X0302415Y0065070D01*
X0301438Y0064093D01*
X0301438Y0064637D01*
X0300149Y0065926D01*
X0290452Y0065926D01*
X0289164Y0064637D01*
X0289164Y0054941D01*
X0290452Y0053652D01*
X0300149Y0053652D01*
X0301438Y0054941D01*
X0301438Y0055642D01*
X0302415Y0054665D01*
X0304671Y0053731D01*
X0307112Y0053731D01*
X0309368Y0054665D01*
X0310236Y0055533D02*
X0314400Y0055533D01*
X0314400Y0056732D02*
X0311235Y0056732D01*
X0311731Y0057930D02*
X0314400Y0057930D01*
X0314400Y0059129D02*
X0312028Y0059129D01*
X0312028Y0060327D02*
X0314400Y0060327D01*
X0314400Y0061526D02*
X0311847Y0061526D01*
X0311351Y0062724D02*
X0314400Y0062724D01*
X0314400Y0063923D02*
X0310515Y0063923D01*
X0309245Y0065121D02*
X0314400Y0065121D01*
X0302537Y0065121D02*
X0300954Y0065121D01*
X0289648Y0065121D02*
X0269857Y0065121D01*
X0270000Y0063923D02*
X0289164Y0063923D01*
X0289164Y0062724D02*
X0281186Y0062724D01*
X0282186Y0061526D02*
X0289164Y0061526D01*
X0289164Y0060327D02*
X0282186Y0060327D01*
X0282186Y0059129D02*
X0289164Y0059129D01*
X0289164Y0057930D02*
X0282186Y0057930D01*
X0282186Y0056732D02*
X0289164Y0056732D01*
X0289164Y0055533D02*
X0282186Y0055533D01*
X0282186Y0054334D02*
X0289770Y0054334D01*
X0300832Y0054334D02*
X0303213Y0054334D01*
X0301547Y0055533D02*
X0301438Y0055533D01*
X0314400Y0047143D02*
X0288397Y0047143D01*
X0289596Y0045945D02*
X0314400Y0045945D01*
X0314400Y0044746D02*
X0290093Y0044746D01*
X0290532Y0043548D02*
X0314400Y0043548D01*
X0314400Y0042349D02*
X0290532Y0042349D01*
X0290493Y0041151D02*
X0314400Y0041151D01*
X0314400Y0039952D02*
X0289997Y0039952D01*
X0289362Y0038754D02*
X0314400Y0038754D01*
X0314400Y0037555D02*
X0288164Y0037555D01*
X0285683Y0036357D02*
X0314400Y0036357D01*
X0314400Y0035158D02*
X0311586Y0035158D01*
X0312028Y0033960D02*
X0314400Y0033960D01*
X0314400Y0032761D02*
X0312028Y0032761D01*
X0312028Y0031563D02*
X0314400Y0031563D01*
X0314400Y0030364D02*
X0312028Y0030364D01*
X0312028Y0029166D02*
X0314400Y0029166D01*
X0314400Y0027967D02*
X0312028Y0027967D01*
X0312028Y0026769D02*
X0314400Y0026769D01*
X0314400Y0025570D02*
X0312028Y0025570D01*
X0311381Y0024372D02*
X0314400Y0024372D01*
X0314400Y0023173D02*
X0284926Y0023173D01*
X0286125Y0021975D02*
X0314400Y0021975D01*
X0314400Y0020776D02*
X0286626Y0020776D01*
X0287068Y0019578D02*
X0314400Y0019578D01*
X0314400Y0018379D02*
X0287068Y0018379D01*
X0287031Y0017181D02*
X0314400Y0017181D01*
X0314400Y0015982D02*
X0305487Y0015982D01*
X0306005Y0014784D02*
X0314400Y0014784D01*
X0314400Y0013585D02*
X0306005Y0013585D01*
X0306005Y0012387D02*
X0314400Y0012387D01*
X0314400Y0011188D02*
X0306005Y0011188D01*
X0306005Y0009990D02*
X0314400Y0009990D01*
X0314400Y0008791D02*
X0306005Y0008791D01*
X0306005Y0007593D02*
X0314400Y0007593D01*
X0314400Y0006394D02*
X0306005Y0006394D01*
X0305433Y0005196D02*
X0314400Y0005196D01*
X0314400Y0003997D02*
X0003800Y0003997D01*
X0003800Y0019578D02*
X0012137Y0019578D01*
X0011619Y0020776D02*
X0003800Y0020776D01*
X0003800Y0021975D02*
X0010420Y0021975D01*
X0009873Y0023173D02*
X0003800Y0023173D01*
X0003800Y0024372D02*
X0009400Y0024372D01*
X0009400Y0025570D02*
X0003800Y0025570D01*
X0003800Y0026769D02*
X0009405Y0026769D01*
X0009901Y0027967D02*
X0003800Y0027967D01*
X0003800Y0029166D02*
X0010487Y0029166D01*
X0011685Y0030364D02*
X0003800Y0030364D01*
X0003800Y0031563D02*
X0014048Y0031563D01*
X0017026Y0031563D02*
X0028064Y0031563D01*
X0025701Y0030364D02*
X0019389Y0030364D01*
X0020587Y0029166D02*
X0024502Y0029166D01*
X0019830Y0041151D02*
X0054741Y0041151D01*
X0053645Y0042349D02*
X0020859Y0042349D01*
X0021356Y0043548D02*
X0053200Y0043548D01*
X0053200Y0044746D02*
X0021674Y0044746D01*
X0021674Y0045945D02*
X0053200Y0045945D01*
X0053200Y0047143D02*
X0021514Y0047143D01*
X0021018Y0048342D02*
X0053200Y0048342D01*
X0053200Y0049540D02*
X0020213Y0049540D01*
X0019409Y0050739D02*
X0026773Y0050739D01*
X0026651Y0050801D02*
X0027427Y0050406D01*
X0028256Y0050136D01*
X0029117Y0050000D01*
X0029168Y0050000D01*
X0029168Y0055153D01*
X0024016Y0055153D01*
X0024016Y0055101D01*
X0024152Y0054240D01*
X0024421Y0053412D01*
X0024817Y0052635D01*
X0025329Y0051930D01*
X0025946Y0051314D01*
X0026651Y0050801D01*
X0025324Y0051937D02*
X0019409Y0051937D01*
X0019409Y0053136D02*
X0024562Y0053136D01*
X0024137Y0054334D02*
X0019409Y0054334D01*
X0019409Y0055533D02*
X0029168Y0055533D01*
X0029168Y0055153D02*
X0029168Y0055921D01*
X0024016Y0055921D01*
X0024016Y0055973D01*
X0024152Y0056834D01*
X0024421Y0057662D01*
X0024817Y0058439D01*
X0025329Y0059144D01*
X0025946Y0059760D01*
X0026651Y0060273D01*
X0027427Y0060668D01*
X0028256Y0060938D01*
X0029117Y0061074D01*
X0029168Y0061074D01*
X0029168Y0055921D01*
X0029937Y0055921D01*
X0035090Y0055921D01*
X0035090Y0055973D01*
X0034953Y0056834D01*
X0034684Y0057662D01*
X0034288Y0058439D01*
X0033776Y0059144D01*
X0033160Y0059760D01*
X0032455Y0060273D01*
X0031678Y0060668D01*
X0030849Y0060938D01*
X0029989Y0061074D01*
X0029937Y0061074D01*
X0029937Y0055921D01*
X0029937Y0055153D01*
X0035090Y0055153D01*
X0035090Y0055101D01*
X0034953Y0054240D01*
X0034684Y0053412D01*
X0034288Y0052635D01*
X0033776Y0051930D01*
X0033160Y0051314D01*
X0032455Y0050801D01*
X0031678Y0050406D01*
X0030849Y0050136D01*
X0029989Y0050000D01*
X0029937Y0050000D01*
X0029937Y0055153D01*
X0029168Y0055153D01*
X0029168Y0054334D02*
X0029937Y0054334D01*
X0029937Y0053136D02*
X0029168Y0053136D01*
X0029168Y0051937D02*
X0029937Y0051937D01*
X0029937Y0050739D02*
X0029168Y0050739D01*
X0032332Y0050739D02*
X0040905Y0050739D01*
X0039569Y0051937D02*
X0033782Y0051937D01*
X0034544Y0053136D02*
X0038832Y0053136D01*
X0038449Y0054334D02*
X0034968Y0054334D01*
X0034970Y0056732D02*
X0038488Y0056732D01*
X0038949Y0057930D02*
X0034548Y0057930D01*
X0033787Y0059129D02*
X0039763Y0059129D01*
X0041320Y0060327D02*
X0032348Y0060327D01*
X0029937Y0060327D02*
X0029168Y0060327D01*
X0029168Y0059129D02*
X0029937Y0059129D01*
X0029937Y0057930D02*
X0029168Y0057930D01*
X0029168Y0056732D02*
X0029937Y0056732D01*
X0029937Y0055533D02*
X0043499Y0055533D01*
X0044268Y0055533D02*
X0051441Y0055533D01*
X0050243Y0056732D02*
X0049279Y0056732D01*
X0049044Y0057930D02*
X0048818Y0057930D01*
X0049420Y0055035D02*
X0044268Y0055035D01*
X0044268Y0049882D01*
X0044319Y0049882D01*
X0045180Y0050018D01*
X0046009Y0050288D01*
X0046785Y0050683D01*
X0047491Y0051195D01*
X0048107Y0051812D01*
X0048619Y0052517D01*
X0049015Y0053293D01*
X0049284Y0054122D01*
X0049420Y0054983D01*
X0049420Y0055035D01*
X0049318Y0054334D02*
X0052640Y0054334D01*
X0053200Y0053136D02*
X0048935Y0053136D01*
X0048198Y0051937D02*
X0053200Y0051937D01*
X0053200Y0050739D02*
X0046862Y0050739D01*
X0044268Y0050739D02*
X0043499Y0050739D01*
X0043499Y0051937D02*
X0044268Y0051937D01*
X0044268Y0053136D02*
X0043499Y0053136D01*
X0043499Y0054334D02*
X0044268Y0054334D01*
X0057462Y0059129D02*
X0061820Y0059129D01*
X0041578Y0061526D02*
X0020441Y0061526D01*
X0021389Y0062724D02*
X0040630Y0062724D01*
X0040133Y0063923D02*
X0021886Y0063923D01*
X0022146Y0065121D02*
X0039872Y0065121D01*
X0039872Y0066320D02*
X0022146Y0066320D01*
X0021929Y0067518D02*
X0040090Y0067518D01*
X0040586Y0068717D02*
X0021433Y0068717D01*
X0020547Y0069915D02*
X0041472Y0069915D01*
X0042866Y0071114D02*
X0019153Y0071114D01*
X0003800Y0073511D02*
X0047519Y0073511D01*
X0046320Y0074709D02*
X0003800Y0074709D01*
X0003800Y0075908D02*
X0045122Y0075908D01*
X0043923Y0077106D02*
X0003800Y0077106D01*
X0003800Y0078305D02*
X0042725Y0078305D01*
X0026757Y0060327D02*
X0019409Y0060327D01*
X0019409Y0059129D02*
X0025318Y0059129D01*
X0024558Y0057930D02*
X0019409Y0057930D01*
X0019409Y0056732D02*
X0024136Y0056732D01*
X0072744Y0041151D02*
X0101278Y0041151D01*
X0099351Y0060327D02*
X0093376Y0060327D01*
X0094575Y0061526D02*
X0098153Y0061526D01*
X0106841Y0060327D02*
X0114976Y0060327D01*
X0115472Y0061526D02*
X0108039Y0061526D01*
X0108688Y0062724D02*
X0116643Y0062724D01*
X0118724Y0063923D02*
X0109184Y0063923D01*
X0106654Y0072312D02*
X0118621Y0072312D01*
X0116601Y0073511D02*
X0106654Y0073511D01*
X0106654Y0074709D02*
X0115455Y0074709D01*
X0114958Y0075908D02*
X0106654Y0075908D01*
X0107675Y0077106D02*
X0114557Y0077106D01*
X0114557Y0078305D02*
X0108629Y0078305D01*
X0109126Y0079503D02*
X0114635Y0079503D01*
X0115131Y0080702D02*
X0109391Y0080702D01*
X0109391Y0081900D02*
X0115820Y0081900D01*
X0117018Y0083099D02*
X0109797Y0083099D01*
X0148273Y0071114D02*
X0160628Y0071114D01*
X0158193Y0072312D02*
X0153708Y0072312D01*
X0154906Y0073511D02*
X0156995Y0073511D01*
X0156379Y0074709D02*
X0155683Y0074709D01*
X0163360Y0071114D02*
X0169222Y0071114D01*
X0168726Y0069915D02*
X0149471Y0069915D01*
X0150670Y0068717D02*
X0168494Y0068717D01*
X0168494Y0067518D02*
X0151868Y0067518D01*
X0153067Y0066320D02*
X0168741Y0066320D01*
X0169237Y0065121D02*
X0154265Y0065121D01*
X0155464Y0063923D02*
X0170165Y0063923D01*
X0171659Y0062724D02*
X0156662Y0062724D01*
X0165794Y0072312D02*
X0170129Y0072312D01*
X0169881Y0073511D02*
X0166993Y0073511D01*
X0174704Y0078305D02*
X0186222Y0078305D01*
X0186261Y0078343D02*
X0185644Y0077727D01*
X0185132Y0077022D01*
X0184736Y0076245D01*
X0184467Y0075416D01*
X0184331Y0074555D01*
X0184331Y0074504D01*
X0189483Y0074504D01*
X0189483Y0079657D01*
X0189432Y0079657D01*
X0188571Y0079520D01*
X0187742Y0079251D01*
X0186966Y0078855D01*
X0186261Y0078343D01*
X0185193Y0077106D02*
X0175902Y0077106D01*
X0177101Y0075908D02*
X0184627Y0075908D01*
X0184355Y0074709D02*
X0177839Y0074709D01*
X0178031Y0073511D02*
X0184358Y0073511D01*
X0184633Y0072312D02*
X0179134Y0072312D01*
X0180041Y0071114D02*
X0185208Y0071114D01*
X0186242Y0069915D02*
X0180537Y0069915D01*
X0189483Y0069915D02*
X0190252Y0069915D01*
X0190252Y0071114D02*
X0189483Y0071114D01*
X0189483Y0072312D02*
X0190252Y0072312D01*
X0190252Y0073511D02*
X0189483Y0073511D01*
X0189483Y0074709D02*
X0190252Y0074709D01*
X0190252Y0075908D02*
X0189483Y0075908D01*
X0189483Y0077106D02*
X0190252Y0077106D01*
X0190252Y0078305D02*
X0189483Y0078305D01*
X0189483Y0079503D02*
X0190252Y0079503D01*
X0191217Y0079503D02*
X0196624Y0079503D01*
X0197476Y0078305D02*
X0193513Y0078305D01*
X0194542Y0077106D02*
X0198786Y0077106D01*
X0188518Y0079503D02*
X0173505Y0079503D01*
X0240702Y0047143D02*
X0250935Y0047143D01*
X0250935Y0045945D02*
X0239503Y0045945D01*
X0238731Y0044746D02*
X0250935Y0044746D01*
X0250935Y0043548D02*
X0237837Y0043548D01*
X0241900Y0048342D02*
X0252120Y0048342D01*
X0262024Y0048342D02*
X0269286Y0048342D01*
X0268258Y0047143D02*
X0263209Y0047143D01*
X0263209Y0045945D02*
X0268258Y0045945D01*
X0268258Y0044746D02*
X0263209Y0044746D01*
X0263209Y0043548D02*
X0268258Y0043548D01*
X0268258Y0042349D02*
X0263209Y0042349D01*
X0263209Y0041151D02*
X0268258Y0041151D01*
X0268258Y0039952D02*
X0263209Y0039952D01*
X0263209Y0038754D02*
X0268258Y0038754D01*
X0268321Y0037555D02*
X0263209Y0037555D01*
X0262106Y0036357D02*
X0269519Y0036357D01*
X0263031Y0033960D02*
X0290793Y0033960D01*
X0289889Y0032761D02*
X0263209Y0032761D01*
X0263209Y0031563D02*
X0289393Y0031563D01*
X0289164Y0030364D02*
X0262910Y0030364D01*
X0262413Y0029166D02*
X0289164Y0029166D01*
X0289413Y0027967D02*
X0261410Y0027967D01*
X0259735Y0026769D02*
X0289909Y0026769D01*
X0298259Y0024372D02*
X0300402Y0024372D01*
X0294249Y0015982D02*
X0286535Y0015982D01*
X0285904Y0014784D02*
X0293731Y0014784D01*
X0293731Y0013585D02*
X0284705Y0013585D01*
X0282233Y0012387D02*
X0293731Y0012387D01*
X0279628Y0012387D02*
X0239730Y0012387D01*
X0242146Y0013585D02*
X0248360Y0013585D01*
X0248029Y0013754D02*
X0248805Y0013358D01*
X0249634Y0013089D01*
X0250495Y0012953D01*
X0250546Y0012953D01*
X0250546Y0018105D01*
X0251315Y0018105D01*
X0251315Y0012953D01*
X0251366Y0012953D01*
X0252227Y0013089D01*
X0253056Y0013358D01*
X0253833Y0013754D01*
X0254538Y0014266D01*
X0255154Y0014883D01*
X0255666Y0015588D01*
X0256062Y0016364D01*
X0256331Y0017193D01*
X0256468Y0018054D01*
X0256468Y0018105D01*
X0251315Y0018105D01*
X0251315Y0018874D01*
X0256468Y0018874D01*
X0256468Y0018926D01*
X0256331Y0019786D01*
X0256062Y0020615D01*
X0255666Y0021392D01*
X0255154Y0022097D01*
X0254538Y0022713D01*
X0253833Y0023225D01*
X0253056Y0023621D01*
X0252227Y0023890D01*
X0251366Y0024027D01*
X0251315Y0024027D01*
X0251315Y0018874D01*
X0250546Y0018874D01*
X0250546Y0018105D01*
X0245394Y0018105D01*
X0245394Y0018054D01*
X0245530Y0017193D01*
X0245799Y0016364D01*
X0246195Y0015588D01*
X0246707Y0014883D01*
X0247324Y0014266D01*
X0248029Y0013754D01*
X0246806Y0014784D02*
X0243345Y0014784D01*
X0243953Y0015982D02*
X0245994Y0015982D01*
X0245534Y0017181D02*
X0244449Y0017181D01*
X0244469Y0018379D02*
X0250546Y0018379D01*
X0250546Y0018874D02*
X0245394Y0018874D01*
X0245394Y0018926D01*
X0245530Y0019786D01*
X0245799Y0020615D01*
X0246195Y0021392D01*
X0246707Y0022097D01*
X0247324Y0022713D01*
X0248029Y0023225D01*
X0248805Y0023621D01*
X0249634Y0023890D01*
X0250495Y0024027D01*
X0250546Y0024027D01*
X0250546Y0018874D01*
X0250546Y0019578D02*
X0251315Y0019578D01*
X0251315Y0020776D02*
X0250546Y0020776D01*
X0250546Y0021975D02*
X0251315Y0021975D01*
X0251315Y0023173D02*
X0250546Y0023173D01*
X0247957Y0023173D02*
X0242288Y0023173D01*
X0243487Y0021975D02*
X0246619Y0021975D01*
X0245881Y0020776D02*
X0244012Y0020776D01*
X0244469Y0019578D02*
X0245497Y0019578D01*
X0250546Y0017181D02*
X0251315Y0017181D01*
X0251315Y0018379D02*
X0274794Y0018379D01*
X0274794Y0019578D02*
X0256364Y0019578D01*
X0255980Y0020776D02*
X0275235Y0020776D01*
X0275737Y0021975D02*
X0255243Y0021975D01*
X0253905Y0023173D02*
X0276935Y0023173D01*
X0274830Y0017181D02*
X0256327Y0017181D01*
X0255867Y0015982D02*
X0275327Y0015982D01*
X0275958Y0014784D02*
X0255055Y0014784D01*
X0253501Y0013585D02*
X0277156Y0013585D01*
X0251315Y0013585D02*
X0250546Y0013585D01*
X0250546Y0014784D02*
X0251315Y0014784D01*
X0251315Y0015982D02*
X0250546Y0015982D01*
X0254410Y0026769D02*
X0239756Y0026769D01*
X0241467Y0027967D02*
X0252735Y0027967D01*
X0251732Y0029166D02*
X0242359Y0029166D01*
X0242849Y0030364D02*
X0251235Y0030364D01*
X0262535Y0035158D02*
X0292227Y0035158D01*
X0298375Y0035158D02*
X0300197Y0035158D01*
X0283108Y0036357D02*
X0279271Y0036357D01*
X0280470Y0037555D02*
X0280627Y0037555D01*
X0271201Y0050739D02*
X0269912Y0052027D01*
X0269912Y0052060D01*
X0269525Y0051673D01*
X0267270Y0050739D01*
X0269790Y0051937D02*
X0270002Y0051937D01*
X0270000Y0062724D02*
X0270912Y0062724D01*
X0237890Y0036357D02*
X0237121Y0036357D01*
X0237121Y0035158D02*
X0237890Y0035158D01*
X0237890Y0033960D02*
X0237121Y0033960D01*
X0237121Y0032761D02*
X0237890Y0032761D01*
X0119484Y0128642D02*
X0118716Y0128642D01*
X0118716Y0129841D02*
X0119484Y0129841D01*
X0119484Y0131039D02*
X0118716Y0131039D01*
X0118716Y0132238D02*
X0119484Y0132238D01*
X0119484Y0133436D02*
X0118716Y0133436D01*
X0118716Y0134635D02*
X0119484Y0134635D01*
X0119484Y0135833D02*
X0118716Y0135833D01*
X0118716Y0137032D02*
X0119484Y0137032D01*
X0119484Y0138230D02*
X0118716Y0138230D01*
X0118716Y0139429D02*
X0119484Y0139429D01*
X0141572Y0135833D02*
X0142521Y0135833D01*
M02*
